<svg xmlns="http://www.w3.org/2000/svg" width="590" height="300" viewBox="0 0 590 300" role="img" aria-label="AI Wealth Advisor: Financial assistant with RAG memory that scores portfolio risk (VaR, Sharpe, drawdown) and designs strategies."><title>AI Wealth Advisor: Financial assistant with RAG memory that scores portfolio risk (VaR, Sharpe, drawdown) and designs strategies.</title><style>
.sans{font-family:'Segoe UI', Inter, -apple-system, BlinkMacSystemFont, Helvetica, Arial, sans-serif;} .mono{font-family:ui-monospace, SFMono-Regular, Menlo, Consolas, 'Liberation Mono', monospace;letter-spacing:1.2px;}
.fx{transform-box:fill-box;transform-origin:center;}
.blob{animation:float 14s ease-in-out infinite alternate;}
.b2{animation-duration:18s;animation-direction:alternate-reverse;} .b3{animation-duration:22s;}
@keyframes float{from{transform:translate(0,0) scale(1);} to{transform:translate(60px,-40px) scale(1.15);}}
.spin{animation:spin 16s linear infinite;} .rspin{animation:spin 24s linear infinite reverse;}
@keyframes spin{to{transform:rotate(360deg);}}
.eq{animation:eq 1.1s ease-in-out infinite alternate;transform-origin:center;transform-box:fill-box;}
@keyframes eq{from{transform:scaleY(.22);} to{transform:scaleY(1);}}
.pulse{animation:pulse 2s ease-in-out infinite;}
@keyframes pulse{0%,100%{opacity:1;} 50%{opacity:.25;}}
.ring{animation:ring 2.4s ease-out infinite;transform-box:fill-box;transform-origin:center;}
@keyframes ring{from{transform:scale(.3);opacity:.9;} to{transform:scale(1.6);opacity:0;}}
.draw{stroke-dasharray:1;animation:draw 4.5s ease-out infinite backwards;}
@keyframes draw{0%{stroke-dashoffset:1;} 60%,100%{stroke-dashoffset:0;}}
.rot{opacity:0;animation:rot 15s infinite both;}
@keyframes rot{0%{opacity:0;transform:translateY(16px);} 3%,17%{opacity:1;transform:translateY(0);} 20%,100%{opacity:0;transform:translateY(-16px);}}
.move{animation:move 2.6s linear infinite;}
@keyframes move{from{transform:translateX(0);opacity:0;} 15%{opacity:1;} 85%{opacity:1;} to{transform:translateX(var(--dx,120px));opacity:0;}}
.drop{animation:drop 3s ease-out infinite both;}
@keyframes drop{0%{transform:translateY(-18px);opacity:0;} 20%,80%{transform:translateY(0);opacity:1;} 100%{opacity:0;}}
.scan{animation:scan 2.8s ease-in-out infinite alternate;}
@keyframes scan{from{transform:translateY(0);} to{transform:translateY(var(--dy,80px));}}
.shine{animation:shine 5s linear infinite;}
@keyframes shine{from{transform:translateX(-400px);} to{transform:translateX(1400px);}}
.enter{animation:enter .9s cubic-bezier(.2,.8,.2,1) both;}
@keyframes enter{from{transform:translateY(-14px);opacity:0;} to{transform:translateY(0);opacity:1;}}
.grow{animation:grow 1.4s cubic-bezier(.2,.8,.2,1) both;transform-box:fill-box;transform-origin:bottom;}
@keyframes grow{from{transform:scaleY(0);} to{transform:scaleY(1);}}
@media (prefers-reduced-motion:reduce){*{animation:none!important;} .rot{opacity:0;} .r0{opacity:1;}}
</style><defs>
<linearGradient id="sun" x1="0" y1="0" x2="1" y2="0"><stop offset="0" stop-color="#FFB224"/><stop offset=".5" stop-color="#FF5C39"/><stop offset="1" stop-color="#FF3D9A"/></linearGradient>
<linearGradient id="edge" x1="0" y1="0" x2="1" y2="1"><stop offset="0" stop-color="#FFB224" stop-opacity=".9"/><stop offset=".5" stop-color="#FF3D9A" stop-opacity=".35"/><stop offset="1" stop-color="#5B8CFF" stop-opacity=".8"/></linearGradient>
<filter id="blur" x="-60%" y="-60%" width="220%" height="220%"><feGaussianBlur stdDeviation="46"/></filter>
<filter id="glow" x="-50%" y="-50%" width="200%" height="200%"><feGaussianBlur stdDeviation="4" result="b"/><feMerge><feMergeNode in="b"/><feMergeNode in="SourceGraphic"/></feMerge></filter>
<pattern id="dots" width="22" height="22" patternUnits="userSpaceOnUse"><circle cx="1.5" cy="1.5" r="1.1" fill="#26263D"/></pattern>
</defs><clipPath id="clip"><rect width="590" height="300" rx="20"/></clipPath><g clip-path="url(#clip)"><rect width="590" height="300" fill="#0A0A14"/><g filter="url(#blur)" opacity=".55"><circle class="blob" cx="71" cy="60" r="96" fill="#FF5C39"/><circle class="blob b2" cx="460" cy="255" r="90" fill="#5B8CFF"/><circle class="blob b3" cx="324" cy="30" r="66" fill="#FF3D9A"/></g><rect width="590" height="300" fill="url(#dots)" opacity=".6"/><rect x="0" y="0" width="6" height="300" fill="#5B8CFF"/><text x="30" y="46" class="mono" font-size="12" fill="#5B8CFF">05 · RAG · TOOL-CALLING AGENT</text><text x="28" y="92" class="sans" font-size="34" font-weight="800" fill="#F6F4FF">AI Wealth Advisor</text><rect x="30" y="112" width="60" height="4" rx="2" fill="url(#sun)"/><g class="spin" style="transform-origin:460px 82px;transform-box:view-box"><circle cx="460" cy="82" r="40" fill="none" stroke="#5B8CFF" stroke-width="14" pathLength="100" stroke-dasharray="40.5 100" stroke-dashoffset="0.0" transform="rotate(-90 460 82)"/><circle cx="460" cy="82" r="40" fill="none" stroke="#FFB224" stroke-width="14" pathLength="100" stroke-dasharray="24.5 100" stroke-dashoffset="-42.0" transform="rotate(-90 460 82)"/><circle cx="460" cy="82" r="40" fill="none" stroke="#FF3D9A" stroke-width="14" pathLength="100" stroke-dasharray="16.5 100" stroke-dashoffset="-68.0" transform="rotate(-90 460 82)"/><circle cx="460" cy="82" r="40" fill="none" stroke="#A3F547" stroke-width="14" pathLength="100" stroke-dasharray="12.5 100" stroke-dashoffset="-86.0" transform="rotate(-90 460 82)"/></g><rect x="500" y="24" width="62" height="34" rx="10" fill="#12121F" stroke="#5B8CFF"/><text x="531" y="46" class="mono" font-size="10" fill="#5B8CFF" text-anchor="middle">VaR</text><rect x="500" y="106" width="62" height="34" rx="10" fill="#12121F" stroke="#FFB224"/><text x="531" y="128" class="mono" font-size="10" fill="#FFB224" text-anchor="middle">SHARPE</text><text x="30" y="176" class="sans" font-size="15" fill="#A3A1BE">Financial assistant with RAG memory that scores portfolio risk</text><text x="30" y="197" class="sans" font-size="15" fill="#A3A1BE">(VaR, Sharpe, drawdown) and designs strategies.</text><rect x="30" y="246" width="111" height="26" rx="13" fill="#12121F" stroke="#F6F4FF" stroke-opacity=".55"/><path transform="translate(40.5 252.5) scale(0.542)" d="M6.0988 5.9175C2.7359 5.9175 0 8.6462 0 12s2.736 6.0825 6.0988 6.0825h11.8024C21.2641 18.0825 24 15.3538 24 12s-2.736-6.0825-6.0988-6.0825ZM5.9774 7.851c.493.0124 1.02.2496 1.273.6228.3673.4592.4778 1.0668.8944 1.4932.5604.6118 1.199 1.1505 1.7161 1.802.4892.5954.8386 1.2937 1.1436 1.9975.1244.2335.1257.5202.31.7197.0908.1204.5346.4483.4383.5645.0555.1204.4702.286.3263.4027-.1944.04-.4129.0476-.5616-.1074-.0549.126-.183.0596-.2819.0432a4 4 0 0 0-.025.0736c-.3288.0219-.5754-.3126-.732-.565-.3111-.168-.6642-.2702-.982-.446-.0182.2895.0452.6485-.231.8353-.014.5565.8436.0656.9222.4804-.061.0067-.1286-.0095-.1774.0373-.2239.2172-.4805-.1645-.7385-.007-.3464.174-.3808.3161-.8096.352-.0237-.0359-.0143-.0592.0059-.0811.1207-.1399.1295-.3046.3356-.3643-.2122-.0334-.3899.0833-.5686.1757-.2323.095-.2304-.2141-.5878.0164-.0396-.0322-.0208-.0615.0018-.0864.0908-.1107.2102-.127.345-.1208-.663-.3686-.9751.4507-1.2813.0432-.092.0243-.1265.1068-.1845.1652-.05-.0548-.0123-.1212-.0099-.1857-.0598-.028-.1356-.041-.1179-.1366-.1171-.0395-.1988.0295-.286.0952-.0787-.0608.0532-.1492.0776-.2125.0702-.1216.23-.025.3111-.1126.2306-.1308.552.0814.8155.0455.203.0255.4544-.1825.3526-.39-.2171-.2767-.179-.6386-.1839-.9695-.0268-.1929-.491-.4382-.6252-.6462-.1659-.1873-.295-.4047-.4243-.6182-.4666-.9008-.3198-2.0584-.9077-2.8947-.266.1466-.6125.0774-.8418-.119-.1238.1125-.1292.2598-.139.4161-.297-.2962-.2593-.8559-.022-1.1855.0969-.1302.2127-.2373.342-.3316.0292-.0213.0391-.0419.0385-.0747.1174-.5267.5764-.7391 1.0694-.7267m12.4071.46c.5575 0 1.0806.2159 1.474.6082s.61.9145.61 1.4704c0 .556-.2167 1.078-.61 1.4698v.0006l-.902.8995a2.08 2.08 0 0 1-.8597.5166l-.0164.0047-.0058.0164a2.05 2.05 0 0 1-.474.7308l-.9018.8995c-.3934.3924-.917.6083-1.4745.6083s-1.0806-.216-1.474-.6083c-.813-.8107-.813-2.1294 0-2.9402l.9019-.8995a2.056 2.056 0 0 1 .858-.5143l.017-.0053.0058-.0158a2.07 2.07 0 0 1 .4752-.7337l.9018-.8995c.3934-.3924.9171-.6083 1.4745-.6083zm0 .8965a1.18 1.18 0 0 0-.8388.3462l-.9018.8995a1.181 1.181 0 0 0-.3427.9252l.0053.0572c.0323.2652.149.5044.3374.6917.13.1296.2733.2114.4471.2686a.9.9 0 0 1 .014.1582.884.884 0 0 1-.2609.6304l-.0554.0554c-.3013-.1028-.5525-.253-.7794-.4792a2.06 2.06 0 0 1-.5761-1.0968l-.0099-.0578-.0461.0368a1.1 1.1 0 0 0-.0876.0794l-.9024.8995c-.4623.461-.4623 1.212 0 1.673.2311.2305.535.346.8394.3461.3043 0 .6077-.1156.8388-.3462l.9019-.8995c.4623-.461.4623-1.2113 0-1.673a1.17 1.17 0 0 0-.4367-.2749 1 1 0 0 1-.014-.1611c0-.2591.1023-.505.2901-.6923.3019.1028.57.2694.7962.495.3007.2999.4994.679.5756 1.0968l.0105.0578.0455-.0373a1.1 1.1 0 0 0 .0887-.0794l.902-.8996c.4622-.461.4628-1.2124 0-1.6735a1.18 1.18 0 0 0-.8395-.3462Zm-9.973 5.1567-.0006.0006c-.0793.3078-.1048.8318-.506.847-.033.1776.1228.2445.2655.1874.141-.0645.2081.0508.2557.1657.2177.0317.5394-.0725.5516-.3298-.325-.1867-.4253-.5418-.5662-.8709" fill="#F6F4FF"/><text x="60" y="263.5" class="mono" font-size="11" fill="#F6F4FF">LangChain</text><rect x="148.60000000000002" y="246" width="88" height="26" rx="13" fill="#12121F" stroke="#F6F4FF" stroke-opacity=".55"/><path transform="translate(159.1 252.5) scale(0.542)" d="M11.04 19.32Q12 21.51 12 24q0-2.49.93-4.68.96-2.19 2.58-3.81t3.81-2.55Q21.51 12 24 12q-2.49 0-4.68-.93a12.3 12.3 0 0 1-3.81-2.58 12.3 12.3 0 0 1-2.58-3.81Q12 2.49 12 0q0 2.49-.96 4.68-.93 2.19-2.55 3.81a12.3 12.3 0 0 1-3.81 2.58Q2.49 12 0 12q2.49 0 4.68.96 2.19.93 3.81 2.55t2.55 3.81" fill="#8E75B2"/><text x="178.60000000000002" y="263.5" class="mono" font-size="11" fill="#F6F4FF">Gemini</text><rect x="245.00000000000003" y="246" width="81" height="26" rx="13" fill="#12121F" stroke="#F6F4FF" stroke-opacity=".55"/><path transform="translate(255.5 252.5) scale(0.542)" d="M7.172 20.36c-.914-.72-1.89-1.41-2.556-2.38-1.402-1.712-2.482-3.694-3.22-5.777-.446-1.355-.6-2.808-1.174-4.11-.602-.944.103-1.978 1.138-2.28.46-.087 1.272-.522.293-.211-.878.644-.963-.585-.063-.662.615-.082.84-.585.63-1.037-.66-.43 1.6-.903.463-1.544C1.5 1.08 4.34.835 3.64 2.285 3.473 3.4 5.624 2.08 5.125 3.368c.507.619 1.9.14 1.865 1.009.74.05.993.672 1.687.72.72.325 2.022.58 2.266 1.39-.713.566-2.364-1.165-2.443.398.215 2.31.16 4.689 1.004 6.888.4 1.332 1.37 2.38 2.244 3.418.837 1.016 1.971 1.73 3.127 2.333 1.014.478 2.107.795 3.213.994.448-.343 1.24-1.617 1.938-1.08.033.604-1.388 1.263-.067 1.196.776-.234 1.314.6 1.953-.152.588.697 2.446-.446 2.027.98-.566.364-1.392.144-1.959.646-.935-.467-1.68.418-2.715.306a19.86 19.86 0 01-3.484.29c-1.912-.15-3.865-.214-5.684-.88-1.024-.297-2.023-.881-2.924-1.464zm1.615.7c1 .432 1.978.888 3.074 1.026 1.74.24 3.537.614 5.283.274-.79-.357-1.608.14-2.395-.255-.944.203-1.957-.052-2.917-.177-1.092-.486-2.27-.82-3.291-1.452-1.277-.466.66.598 1.005.685.798.453-.877-.233-1.114-.421-.668-.375-.754-.297-.066.084.139.08.276.166.42.235zm-1.904-1.346c.97.359-.004-.682-.45-.622-.196-.341-.751-.557-.36-.74-.704.244-.737-.93-1.07-.763-.744-.235-.29-1.07-1.176-1.58-.081-.54-.882-1.008-1.138-1.822-.113-.416-.905-1.613-.418-.5.414 1.072 1.143 1.99 1.75 2.907.47.873 1.027 1.786 1.885 2.33.29.278.568.703.977.79zM4.09 16.647c.033-.146.177.317 0 0zm3.954 3.497c.215-.096-.31-.12 0 0zm.526.192c-.054-.265-.24.148 0 0zm.66.275c.312-.3-.484-.188 0 0zm1.127.63c.191-.282-.61-.107 0 0zM8.19 19.728c.487-.315-.63-.004 0 0zm.494.246c-.014-.166-.176.075 0 0zm2.47 1.542c.397.25 2.32.55 1.115.103-.2.042-2.23-.574-1.116-.103zm-3.921-3.054c-.04-.167-.616-.185 0 0zm1.15.67c.3-.21-.621-.16 0 0zm.966.593c.43-.162-.696-.163 0 0zm-2.584-1.773c.466.358 1.88.046.714-.213-.53-.283-1.727-.476-.912.17zm3.24 1.978c.193-.33-.815-.19 0 0zm-.984-.783c1.14.323-.958-.72-.281-.118l.15.068.13.05zm1.973 1.14c1.08.01-.975-.147 0 0zm-4.644-2.96c-.042-.2-.266.018 0 0zm6.47 3.985c.028-.363-.353.27 0 0zm-4.63-2.856c-.064-.191-.336-.008 0 0zm-1.738-1.254c.62-.037-.848-.273 0 0zm-2.06-1.332c-.077-.297-.674-.534 0 0zm5.407 3.435c-.114-.13-.054.028 0 0zm3.366 2.065c-.01-.197-.183.075 0 0zm-3.664-2.373c.06-.255-.528-.077 0 0zm-2.506-1.592c.46-.05-.74-.311 0 0zm4.241 2.637c.718-.285-.7-.14 0 0zM9.03 18.545c.827.106-.985-.563-.181-.06zm2.876 1.768c.773-.462.518 1.082 1.311.13.782-.57-.675.707.29.103.696-.467 1.726.22 2.376.445.468-.023.923.405 1.403.145.923-.25-1.806-.37-1.09-.81-.845.245-1.47-.294-1.885-.835-.948-.22-2.044-.703-2.517-1.542-.192-.315.28.044-.166-.47-.57-.508-.856-1.085-1.24-1.702-.457-.244-.51-.963-.557-.024.004-.593-.553-.992-.688-.826-.002-.571.595-.285.176-.707-.09-.592-.386-1.21-.475-1.877-.138-.322-.02-1.011-.473-.282-.165.77-.055-.947.202-.38.337-.58-.12-.51-.14-.43.22-.488.14-1.18-.057-.916.117-.517.185-1.902-.175-1.656.218-.54.414-2.473-.534-1.736-.384.005-1.048.14-1.363.296.986.543-.1.196-.5.11-.052.502-.45.285-.946.29.793.098-.386.81-.841.534-.59.282.51.987.012 1.205.06.328-.905-.12-.83.64-.573-.241-.078.9.209.514.975.264.686.866.71 1.437-.158.333-.784-.783-.14-.731-.507-.827-.561-.3-.984.085-.1.028 1.079.547.34.803.65.1.668.67.8 1.03.39.407.31-.45.779.04-.296-.436-1.567-1.228-.544-.974-.005-.44-.185-.793.129-.784.31-.562-.325 1.387.375.672.193-.085.24-.563.59.045.505.498.182.858-.531.403.127.433.954.587.799 1.265.165.595.395.376.596.342.158.578.247.153.255-.123.72.155.552.58.778.88.497.224-.712-1.522.142-.526.898.81.337 1.15-.47 1.02.51-.041.675.69 1.313.664.582.277.975 1.34-.027.897-.348-.313-1.58-.7-.573-.104.929.43 1.665.688 2.561 1.227.64.458.918.982 1.16 1.086-.538.257-1.623-.206-.817-.348-.503-.091-1.068-.345-.587.28.41.343 1.45.306 1.637.345-.159.348-.43.376.006.403-.486.26.156.3.201.448zm-.994-2.808c-.296-.31-.373-.89-.053-.385.164.066.525.947.053.385zm3.238 2.057c.185-.011.006.14 0 0zm-3.706-2.816c-.01-.468.107.36 0 0zm-.322-.433c-.372-.72.47.204 0 0zm-3.9-2.692c.219-.06.108.374 0 0zm3.104 1.682c.134-.504.158.424 0 0zm-2.192-1.525c-.155-.278.323.26 0 0zm1.882.604c-.352-.79.25-.432.078.13zM5.77 12.217c-.158-.26-.418-1.02-.334-1.252.076.378.804 1.627.357.518-.494-.93.59.302.702.534.05.23-.305-.063-.064.478-.44-.617-.26.34-.661-.278zm-1.003-.691c.04-.603.23.413 0 0zm.45.155c.216-.455.366.634 0 0zm-1.084-.84c-.374-.37-.644-.713.017-.23.255.01-.566-.778.06-.25.66.12.327 1.082-.077.48zm.57-.015c.217-.215.115.212 0 0zm.35.113c-.328-.617.4.258 0 0zm-.697-.667c-1.086-.966 1.365.506.177.18zm3.11 1.808c-.47-.282-.123-1.984.037-.82.457-.148-.025.6.315.594-.053.473-.206.643-.35.226zm1.15.68c.048-.513.099.35 0 0zm-.2-.198c.054-.22.007.258 0 0zM4.57 9.955c-.697-.963 2.027.973.447.244-.165-.043-.364-.06-.447-.244zm2.216 1.175c-.066-.81.147.134 0 0zm1.682 1.079c.13-.462.01.305 0 0zM4.676 9.587c.415-.088 1.718.729.52.234-.132-.148-.416-.08-.52-.234zm3.56 1.775c.044-.83.248-.495.002.118zM4.985 9.299c.169-.248-.45-1.12.089-.313.232.185.672.31.283.387.61.539-.15.146-.372-.074zm3.075 1.804c.117-.944.103.553 0 0zM4.632 8.427c.129-.055.068.172 0 0zm.802.478c.206-.434.38.483 0 0zm2.263 1.259c-.002-.167.043.242 0 0zm-.131-.29c-.314-.776.292.41 0 0zm-.193-.51c-.053-.32.18.404 0 0zm.314-.51c-.216-.38.272-1.673.326-.87-.227.625-.065.975.093.136.293-.66-.063 1.303-.42.735zm.322-1.923c.094-.115.02.139 0 0zM7.47 17.544c-.128-.111.016.07 0 0zm1.11.56c.615.16.612-.095.055-.17-.3-.28-1.246-.575-.4-.035.057.142.235.139.344.206zM6.389 16.65c.34.253 1.28.719.484.096.269-.312-.514-.478-.254-.686-.66-.404-.52-.368-.058-.356-.794-.354.114-.328.07-.51-.305-.06-1.52-.54-.804.04-.726-.37-.173.138-.392.084-.743-.202.66.565-.118.375.425.337 1.146.864.18.357-.128.183.69.46.892.6zm1.16.667c1.41.454-.691-.556 0 0zm5.94 3.598c.02-.28-.193.24 0 0zm.611.257c.325-.315.013.503.54-.077.005-.415-.017-.66-.606-.156-.162.09-.234.473.066.233zm-9.692-6.087c-.1-.393-.7-.39 0 0zm.652.428c-.242-.402-.864-.364 0 0zm3.71 2.237c.362.32 1.662.236.44.04-.182-.27-1.151-.204-.44-.04zm5.097 3.149c.558-.468-.54.208 0 0zm1.16.796c.003-.15-.24.066 0 0zm.001-.21c.617-.654-.598.039 0 0zM2.805 13.743c-.526-.75-.327-1.088-.835-1.7-.096-.47-.87-1.533-.4-.406.43.659.558 1.679 1.235 2.106zm12.03 7.534c1.135-.734-.466-.32 0 0zm.866.34c.57-.488-.36-.102 0 0zM4.215 14.255c.163-.242-.42-.031 0 0zm11.305 7.129c.551-.355-.126-.3-.1.032zm-7.47-4.71c-.02-.24-.291.02 0 0zm.46.267c-.145-.297-.224.047 0 0zm7.894 4.684c.705-.51-.428-.098-.148.096zm-.27-.13c.574-.482-.607.213 0 0zm1.38.918c.386-.258-.469-.083 0 0zM4.57 14.08c.517.116 2.066 1.274 1.152.08-.468-.138-.187-1.283-.665-1.08.32.535.264.763-.41.426-.845-.413-.474.204-.31.374-.224.052.299.196.233.2zm-2.356-1.86c.092-.383-.853-2.107-.446-.864.146.26.13.754.446.864zm4.324 2.666c-.266-.223-.013-.032 0 0zm.656.152c0-.405-.725-.164 0 0zm5.681 3.583c-.108-.278-.428-.006 0 0zm.273.199c-.04-.155-.157.03 0 0zM15.4 20.24c.216-.16-.27-.02 0 0zM3.39 12.52c.62-.24-.664-.17 0 0zm8.984 5.662c-.007-.401-.395.1 0 0zm-9.23-6.231c.399-.135-.367-.09 0 0zm1.156.56c-.007-.133-.122.05 0 0zm14.09 8.64c.512-.104 1.678.26 1.866-.136-.62-.015-2.15-.438-2.222.1l.136.023.22.013zM4.667 12.603c.009-.407-.317-.015 0 0zM1.63 10.495c-.138-.775-.525-.118 0 0zm.724.182c.009-.25-.663-.224 0 0zm.414.203c-.12-.097-.094.122 0 0zm2.605 1.67c.122-.112-.29-.083 0 0zm-2.88-2.128c-.07-.585-.84-.088 0 0zm-1.486-.964c-.02-.27-.144.102 0 0zm.22-.167c-.035-.32-.19.04 0 0zm1.22.729c.518-.203-.94-.42-.104-.04zm16.334 10.089c.33-.303-.42-.094 0 0zm1.974 1.023c.132-.392-.334.05 0 0zM2.573 9.38c.055-.38-.41.075 0 0zM.837 8.218c-.093-.535-.08-1.474.812-1.156-1.191.236.824 1.48.57.498.5.024.98-.296.716.19.987-.11 1.67-.964 2.624-.845.742-.098 1.554-.172 2.354-.471.658-.048 1.29-.756.93-1.175-.896-.076-1.835.036-2.827.233-1.098.228-2.096.662-3.205.849-1.08.145.217.4-.092.456-.564.196.672.328-.073.534-.46-.088-.94-.246-.743-.73-1.035.133-1.945.563-1.127 1.616h.06zm2.494-1.27c.243-.894 1.3.735.398.118-.108-.08-.285-.146-.398-.12zm.047-.434c.35-.26.186.146 0 0zm.445.008c.032-.411 1.018.218.163.148zm.608-.245c.222-.26.064.23 0 0zm.156-.104c.37-.444 2.095-.283.832-.043-.338-.255-.598.15-.832.043zm2.25-.347c-.055-1.214 1.119.432 0 0zm.64-.004c.233-.612.906-.245.108-.123.017.065-.024.316-.108.123zM2.322 9.067c.697-.427-.741-.37 0 0zm.515.144c.245-.26-.531-.106 0 0zm-1.52-1.08c.399-.305-.471-.116 0 0zm20.602 12.89c.012-.355-.304.16 0 0zm-2.093-1.43c.06-.408-.27.037 0 0zm2.67 1.568c.557 0 1.688-.173.475-.173-.19.03-1.109.024-.476.173zM3.29 8.959c.45-.03.706-.497-.087-.47-1.23-.127 1.084.42-.158.264-.167.11.236.237.245.207zm.398.202c-.048-.29-.14.154 0 0zm.47-1.257c.197-.243-.27-.065 0 0zm-1.5-2.508c.806-.274 1.907-.581 2.287.135-.387-.466-.156-.924.21-.243.516.689.775-.313.438-.545.383.476.819.7.257.03.61-.734-1.223.097-1.64.088-.2.09-2.071.477-1.551.535zm.472-.903c.46-.347 1.588.206.864-.345-.07-.062-1.586.418-.864.345zm1.674.069c.538.013-.231-.722.409-.39-.105-.343-.746-.407-1.06-.544-.176.314.36.938.65.934zm-1.38-1.52c.186-.252-.326.128 0 0zm.684.164c.866-.115-.22-.373-.174-.01zm-1.277-1c-.61-.796 1.146.134.527-.7-.522-.415-1.023.468-.527.7zm7.824 4.215c.28-.496-1.155-.668-.188-.175.09.03.07.21.188.175z" fill="#F6F4FF"/><text x="275.0" y="263.5" class="mono" font-size="11" fill="#F6F4FF">Flask</text><text x="560" y="272" class="mono" font-size="12" fill="#5B8CFF" text-anchor="end">VIEW REPO →</text></g><rect x="1" y="1" width="588" height="298" rx="19" fill="none" stroke="url(#edge)" stroke-width="1.5"/></svg>