<svg xmlns="http://www.w3.org/2000/svg" viewBox="0 0 640 400" width="640" height="400" role="img" aria-labelledby="ttl dsc"><title id="ttl">minio-from-source: free MinIO Docker image built from source, multi-arch amd64 and arm64 on GHCR</title><desc id="dsc">MinIO server + mc built from source at pinned, commit-verified releases. Multi-arch images on GHCR, smoke-tested in CI, with SBOM and provenance. Unofficial.</desc><style>@keyframes twinkle{0%,100%{transform:scale(.15);opacity:0}50%{transform:scale(1) rotate(45deg);opacity:1}}@keyframes sweep{0%{transform:translateX(0)}60%,100%{transform:translateX(var(--d))}}@keyframes legA{0%,100%{transform:rotate(14deg)}50%{transform:rotate(-14deg)}}@keyframes legB{0%,100%{transform:rotate(-14deg)}50%{transform:rotate(14deg)}}@keyframes walk{0%,50%,100%{transform:translateY(0)}25%,75%{transform:translateY(-3px)}}@keyframes tass{0%,100%{transform:rotate(-12deg)}50%{transform:rotate(12deg)}}@media (prefers-reduced-motion:reduce){*{animation:none!important}}</style><defs><linearGradient id="tp1g0" x1="0" y1="0" x2="1" y2="1"><stop offset="0" stop-color="#f4f7fb"/><stop offset=".45" stop-color="#f4f7fb"/><stop offset=".55" stop-color="#9aa7b8"/><stop offset="1" stop-color="#f4f7fb"/></linearGradient><linearGradient id="tp1g1" x1="0" y1="0" x2="1" y2="1"><stop offset="0" stop-color="#ff2d3c"/><stop offset=".45" stop-color="#ff2d3c"/><stop offset=".55" stop-color="#a10012"/><stop offset="1" stop-color="#ff2d3c"/></linearGradient><linearGradient id="tp1g2" x1="0" y1="0" x2="1" y2="1"><stop offset="0" stop-color="#ffd400"/><stop offset=".45" stop-color="#ffd400"/><stop offset=".55" stop-color="#c78a00"/><stop offset="1" stop-color="#ffd400"/></linearGradient><linearGradient id="tp1g3" x1="0" y1="0" x2="1" y2="1"><stop offset="0" stop-color="#20c45a"/><stop offset=".45" stop-color="#20c45a"/><stop offset=".55" stop-color="#0a7a33"/><stop offset="1" stop-color="#20c45a"/></linearGradient><linearGradient id="tp1g4" x1="0" y1="0" x2="1" y2="1"><stop offset="0" stop-color="#2f7bff"/><stop offset=".45" stop-color="#2f7bff"/><stop offset=".55" stop-color="#0b3fb0"/><stop offset="1" stop-color="#2f7bff"/></linearGradient><linearGradient id="tp1g5" x1="0" y1="0" x2="1" y2="1"><stop offset="0" stop-color="#ff4fa3"/><stop offset=".45" stop-color="#ff4fa3"/><stop offset=".55" stop-color="#b0105e"/><stop offset="1" stop-color="#ff4fa3"/></linearGradient><linearGradient id="tp1g6" x1="0" y1="0" x2="1" y2="1"><stop offset="0" stop-color="#ff8a00"/><stop offset=".45" stop-color="#ff8a00"/><stop offset=".55" stop-color="#b84f00"/><stop offset="1" stop-color="#ff8a00"/></linearGradient><pattern id="tp1" width="224" height="16" patternUnits="userSpaceOnUse"><rect width="224" height="16" fill="#120d0a"/><path d="M16 1.1L30.2 8L16 14.9L1.8 8Z" fill="url(#tp1g0)"/><path d="M1.1 1.1L14.1 1.1L1.1 7Z" fill="url(#tp1g3)"/><path d="M30.9 1.1L17.9 1.1L30.9 7Z" fill="url(#tp1g3)"/><path d="M1.1 14.9L14.1 14.9L1.1 9Z" fill="url(#tp1g3)"/><path d="M30.9 14.9L17.9 14.9L30.9 9Z" fill="url(#tp1g3)"/><path d="M16 3.4L18.9 8" stroke="#fff" stroke-width="0.8" opacity=".8"/><path d="M48 1.1L62.2 8L48 14.9L33.8 8Z" fill="url(#tp1g1)"/><path d="M33.1 1.1L46.1 1.1L33.1 7Z" fill="url(#tp1g4)"/><path d="M62.9 1.1L49.9 1.1L62.9 7Z" fill="url(#tp1g4)"/><path d="M33.1 14.9L46.1 14.9L33.1 9Z" fill="url(#tp1g4)"/><path d="M62.9 14.9L49.9 14.9L62.9 9Z" fill="url(#tp1g4)"/><path d="M48 3.4L50.9 8" stroke="#fff" stroke-width="0.8" opacity=".8"/><path d="M80 1.1L94.2 8L80 14.9L65.8 8Z" fill="url(#tp1g2)"/><path d="M65.1 1.1L78.1 1.1L65.1 7Z" fill="url(#tp1g5)"/><path d="M94.9 1.1L81.9 1.1L94.9 7Z" fill="url(#tp1g5)"/><path d="M65.1 14.9L78.1 14.9L65.1 9Z" fill="url(#tp1g5)"/><path d="M94.9 14.9L81.9 14.9L94.9 9Z" fill="url(#tp1g5)"/><path d="M80 3.4L82.9 8" stroke="#fff" stroke-width="0.8" opacity=".8"/><path d="M112 1.1L126.2 8L112 14.9L97.8 8Z" fill="url(#tp1g3)"/><path d="M97.1 1.1L110.1 1.1L97.1 7Z" fill="url(#tp1g6)"/><path d="M126.9 1.1L113.9 1.1L126.9 7Z" fill="url(#tp1g6)"/><path d="M97.1 14.9L110.1 14.9L97.1 9Z" fill="url(#tp1g6)"/><path d="M126.9 14.9L113.9 14.9L126.9 9Z" fill="url(#tp1g6)"/><path d="M112 3.4L114.9 8" stroke="#fff" stroke-width="0.8" opacity=".8"/><path d="M144 1.1L158.2 8L144 14.9L129.8 8Z" fill="url(#tp1g4)"/><path d="M129.1 1.1L142.1 1.1L129.1 7Z" fill="url(#tp1g0)"/><path d="M158.9 1.1L145.9 1.1L158.9 7Z" fill="url(#tp1g0)"/><path d="M129.1 14.9L142.1 14.9L129.1 9Z" fill="url(#tp1g0)"/><path d="M158.9 14.9L145.9 14.9L158.9 9Z" fill="url(#tp1g0)"/><path d="M144 3.4L146.9 8" stroke="#fff" stroke-width="0.8" opacity=".8"/><path d="M176 1.1L190.2 8L176 14.9L161.8 8Z" fill="url(#tp1g5)"/><path d="M161.1 1.1L174.1 1.1L161.1 7Z" fill="url(#tp1g1)"/><path d="M190.9 1.1L177.9 1.1L190.9 7Z" fill="url(#tp1g1)"/><path d="M161.1 14.9L174.1 14.9L161.1 9Z" fill="url(#tp1g1)"/><path d="M190.9 14.9L177.9 14.9L190.9 9Z" fill="url(#tp1g1)"/><path d="M176 3.4L178.9 8" stroke="#fff" stroke-width="0.8" opacity=".8"/><path d="M208 1.1L222.2 8L208 14.9L193.8 8Z" fill="url(#tp1g6)"/><path d="M193.1 1.1L206.1 1.1L193.1 7Z" fill="url(#tp1g2)"/><path d="M222.9 1.1L209.9 1.1L222.9 7Z" fill="url(#tp1g2)"/><path d="M193.1 14.9L206.1 14.9L193.1 9Z" fill="url(#tp1g2)"/><path d="M222.9 14.9L209.9 14.9L222.9 9Z" fill="url(#tp1g2)"/><path d="M208 3.4L210.9 8" stroke="#fff" stroke-width="0.8" opacity=".8"/></pattern><clipPath id="cframe"><rect x="10" y="10" width="620" height="378" rx="21"/></clipPath><linearGradient id="gl1" x1="0" y1="0" x2="1" y2="0"><stop offset="0" stop-color="#fff" stop-opacity="0"/><stop offset=".5" stop-color="#fff" stop-opacity="0.65"/><stop offset="1" stop-color="#fff" stop-opacity="0"/></linearGradient><linearGradient id="gr1" x1="0" y1="0" x2="0" y2="1"><stop offset="0" stop-color="#ff7a2e"/><stop offset="1" stop-color="#ffc35a"/></linearGradient><clipPath id="artclip"><path d="M40 360L40 110Q40 48 155 40Q270 48 270 110L270 360Z"/></clipPath><path id="K1" d="M433 -220V-96H112V-220ZM543 0H367L271 -451L172 0H0L165 -642H378Z"/><path id="K51" d="M395 -139H275L196 -406V0H40V-642H231L335 -299L439 -642H630V0H475V-408Z"/><path id="K17" d="M317 -374V-505Q317 -516 311 -521.5Q305 -527 292 -527H108V-642H345Q425 -642 458.5 -608Q492 -574 492 -518V-374ZM317 -137V-387H492V-124Q492 -68 458.5 -34Q425 0 345 0H108V-115H292Q305 -115 311 -120.5Q317 -126 317 -137ZM50 -642H225V0H50Z"/><path id="K379" d="M294 -147V-243Q294 -254 288 -259.5Q282 -265 269 -265H164V-385H317Q397 -385 430.5 -351Q464 -317 464 -261V-124Q464 -68 430.5 -34Q397 0 317 0H246V-125H269Q282 -125 288 -130.5Q294 -136 294 -147ZM207 -495V-147Q207 -136 213 -130.5Q219 -125 232 -125H255V0H184Q104 0 70.5 -34Q37 -68 37 -124V-518Q37 -574 70.5 -608Q104 -642 184 -642H255V-517H232Q219 -517 213 -511.5Q207 -506 207 -495ZM284 -446V-495Q284 -506 278 -511.5Q272 -517 259 -517H240V-642H307Q387 -642 420.5 -608Q454 -574 454 -518V-446Z"/><path id="K375" d="M57 -115V-242H507V-115ZM10 -115V-270L251 -642H427L87 -115ZM275 -369H439V0H275Z"/><g id="t1" transform="translate(69.1 133)"><use href="#K1" transform="translate(0 0) scale(0.02400)"/><use href="#K51" transform="translate(13 0) scale(0.02400)"/><use href="#K17" transform="translate(29.1 0) scale(0.02400)"/><use href="#K379" transform="translate(41.8 0) scale(0.02400)"/><use href="#K375" transform="translate(53.7 0) scale(0.02400)"/></g><path id="K69" d="M309 -369V-495Q309 -506 303 -511.5Q297 -517 284 -517H98V-642H337Q417 -642 450.5 -608Q484 -574 484 -518V-352Q484 -296 450.5 -262Q417 -228 337 -228H98V-347H284Q297 -347 303 -352.5Q309 -358 309 -369ZM40 -642H215V0H40ZM195 -298H366L516 0H328Z"/><g id="t2" transform="translate(75.3 85)"><use href="#K1" transform="translate(0 0) scale(0.02400)"/><use href="#K69" transform="translate(13 0) scale(0.02400)"/><use href="#K51" transform="translate(25.4 0) scale(0.02400)"/><use href="#K379" transform="translate(41.4 0) scale(0.02400)"/><use href="#K375" transform="translate(53.3 0) scale(0.02400)"/></g><path id="s574" d="M951 -138Q949 -134 949 -126Q949 -119 952.5 -115Q956 -111 962 -111Q974 -111 982.5 -121.5Q991 -132 994 -132Q999 -132 1002 -125.5Q1005 -119 1005 -110Q1006 -81 986 -53.5Q966 -26 927.5 -8.5Q889 9 835 9Q769 9 730 -21.5Q691 -52 690 -103Q690 -140 708 -186L763 -330Q768 -343 768 -351Q768 -364 759.5 -371.5Q751 -379 739 -379Q722 -379 704 -364Q686 -349 672 -317L617 -138Q615 -134 615 -126Q615 -119 618.5 -115Q622 -111 628 -111Q640 -111 648.5 -121.5Q657 -132 660 -132Q665 -132 668 -125.5Q671 -119 671 -110Q672 -81 652 -53.5Q632 -26 593.5 -8.5Q555 9 501 9Q435 9 396 -21.5Q357 -52 356 -103Q356 -140 374 -186L429 -330Q434 -343 434 -351Q434 -364 425.5 -371.5Q417 -379 405 -379Q388 -379 370 -364.5Q352 -350 340 -318L274 -104Q270 -93 270 -83Q270 -71 275 -63.5Q280 -56 289 -48Q296 -42 299 -37Q302 -32 300 -25Q296 -12 281 -6Q266 0 234 0H6Q-20 0 -31.5 -8.5Q-43 -17 -40 -31Q-36 -43 -19 -52Q-4 -60 6 -71Q16 -82 23 -106L112 -395Q114 -400 114 -409Q114 -420 109.5 -426Q105 -432 95 -441Q85 -449 81 -455Q77 -461 80 -471Q86 -494 143 -511.5Q200 -529 262 -529Q311 -529 339.5 -502Q368 -475 367 -428Q408 -485 453.5 -507Q499 -529 552 -529Q610 -529 646.5 -495.5Q683 -462 687 -408Q730 -476 779 -502.5Q828 -529 886 -529Q947 -529 984.5 -492Q1022 -455 1022 -396Q1022 -365 1012 -335Z"/><path id="s570" d="M372 -447Q372 -424 365 -403L273 -104Q270 -92 270 -83Q270 -70 275 -62.5Q280 -55 289 -48Q296 -41 299 -36.5Q302 -32 300 -25Q295 -12 280 -6Q265 0 234 0H6Q-20 0 -32 -8.5Q-44 -17 -40 -31Q-36 -43 -19 -52Q-4 -60 6 -71Q16 -82 23 -106L110 -395Q113 -404 113 -410Q113 -421 108 -427.5Q103 -434 93 -441Q83 -449 79 -455Q75 -461 78 -471Q84 -494 141 -511.5Q198 -529 260 -529Q318 -529 345 -507Q372 -485 372 -447ZM418 -662Q418 -636 404.5 -611Q391 -586 366.5 -570.5Q342 -555 312 -555Q274 -555 248.5 -580.5Q223 -606 222 -644Q222 -669 235 -693.5Q248 -718 272 -734Q296 -750 327 -750Q366 -750 392 -724.5Q418 -699 418 -662Z"/><path id="s575" d="M619 -138Q617 -134 617 -126Q617 -119 620.5 -115Q624 -111 630 -111Q642 -111 650.5 -121.5Q659 -132 662 -132Q667 -132 670 -125.5Q673 -119 673 -110Q674 -81 654 -53.5Q634 -26 595.5 -8.5Q557 9 503 9Q437 9 398 -21.5Q359 -52 358 -103Q358 -140 376 -186L431 -330Q436 -343 436 -351Q436 -364 427.5 -371.5Q419 -379 407 -379Q385 -379 365 -358.5Q345 -338 336 -308L274 -104Q270 -93 270 -83Q270 -71 275 -63.5Q280 -56 289 -48Q296 -42 299 -37Q302 -32 300 -25Q296 -12 281 -6Q266 0 234 0H6Q-20 0 -31.5 -8.5Q-43 -17 -40 -31Q-36 -43 -19 -52Q-4 -60 6 -71Q16 -82 23 -106L112 -395Q114 -400 114 -409Q114 -420 109.5 -426Q105 -432 95 -441Q85 -449 81 -455Q77 -461 80 -471Q86 -494 143 -511.5Q200 -529 262 -529Q312 -529 341 -501.5Q370 -474 367 -425Q408 -484 454 -506.5Q500 -529 554 -529Q615 -529 652.5 -492Q690 -455 690 -396Q690 -365 680 -335Z"/><path id="s576" d="M652 -330Q652 -300 644 -263Q625 -181 573 -119.5Q521 -58 445.5 -24.5Q370 9 282 9Q143 9 76.5 -46.5Q10 -102 10 -194Q10 -225 18 -263Q37 -341 90.5 -401.5Q144 -462 221.5 -495.5Q299 -529 387 -529Q523 -529 587.5 -474Q652 -419 652 -330ZM284 -261Q252 -157 252 -115Q252 -93 259 -85.5Q266 -78 278 -78Q299 -76 321.5 -114Q344 -152 378 -262Q409 -359 409 -403Q409 -424 402.5 -432Q396 -440 384 -440Q363 -440 339.5 -402.5Q316 -365 284 -261Z"/><path id="s510" d="M208 -413H441Q496 -413 496 -370Q496 -359 494 -352Q475 -291 410 -291H177Q150 -291 136 -301.5Q122 -312 122 -332Q122 -342 125 -352Q132 -381 154 -397Q176 -413 208 -413Z"/><path id="s567" d="M622 -627Q622 -589 590.5 -568.5Q559 -548 508 -548Q461 -548 435 -571Q409 -594 409 -628Q409 -649 422 -672Q392 -672 372 -657.5Q352 -643 341 -608Q335 -586 335 -567Q335 -543 343.5 -529.5Q352 -516 368 -516H427Q479 -516 479 -484Q479 -480 477 -472Q471 -450 452.5 -439Q434 -428 397 -428H367L268 -104Q265 -92 265 -83Q265 -70 270 -62.5Q275 -55 284 -48Q291 -41 294 -36.5Q297 -32 295 -25Q290 -12 275 -6Q260 0 229 0H1Q-25 0 -37 -8.5Q-49 -17 -45 -31Q-41 -43 -24 -52Q-9 -60 1 -71Q11 -82 18 -106L96 -362Q101 -377 101 -393Q101 -413 92.5 -424.5Q84 -436 67 -450Q56 -459 50.5 -465.5Q45 -472 45 -481Q44 -500 58.5 -508Q73 -516 114 -516H139Q132 -541 132 -566Q132 -591 141 -618Q160 -669 222.5 -704Q285 -739 408 -739Q515 -739 568.5 -706.5Q622 -674 622 -627Z"/><path id="s579" d="M614 -411Q614 -392 610 -376Q600 -335 572 -313Q544 -291 505 -291Q467 -291 447.5 -309Q428 -327 413 -357Q405 -374 398 -382Q391 -390 382 -390Q372 -390 364.5 -382Q357 -374 351 -354L274 -104Q272 -99 272 -89Q272 -76 279.5 -67.5Q287 -59 300 -51Q312 -43 316 -38Q320 -33 319 -25Q317 -12 304.5 -6Q292 0 262 0H6Q-20 0 -31.5 -8.5Q-43 -17 -40 -31Q-36 -43 -19 -52Q-4 -60 6 -71Q16 -82 23 -106L112 -395Q114 -400 114 -409Q114 -420 109.5 -426Q105 -432 95 -441Q85 -449 81 -455Q77 -461 80 -471Q86 -494 143 -511.5Q200 -529 262 -529Q303 -529 330 -510.5Q357 -492 365 -458Q413 -529 491 -529Q547 -529 580.5 -495Q614 -461 614 -411Z"/><path id="s580" d="M598 -420Q598 -385 570.5 -363Q543 -341 494 -341Q444 -341 409.5 -366Q375 -391 375 -429Q375 -442 379 -454Q361 -459 347 -459Q322 -459 305.5 -447Q289 -435 290 -413Q290 -387 316 -369Q342 -351 400 -324Q450 -302 482.5 -283.5Q515 -265 537.5 -237Q560 -209 560 -171Q560 -163 556 -141Q540 -74 467 -35Q394 4 275 4Q141 4 62.5 -32Q-16 -68 -16 -131Q-16 -174 10 -196Q36 -218 79 -218Q129 -218 164.5 -187Q200 -156 200 -108Q200 -95 197 -81Q221 -75 243 -75Q269 -75 286 -89Q303 -103 303 -128Q302 -151 280 -167.5Q258 -184 210 -207Q165 -228 136 -246.5Q107 -265 86.5 -293Q66 -321 66 -359Q66 -441 134.5 -489.5Q203 -538 329 -538Q412 -538 472.5 -523Q533 -508 565.5 -481Q598 -454 598 -420Z"/><path id="s582" d="M594 -138Q592 -130 592 -126Q592 -119 595.5 -115Q599 -111 605 -111Q617 -111 625.5 -121.5Q634 -132 637 -132Q642 -132 645.5 -125.5Q649 -119 649 -110Q650 -82 629 -54.5Q608 -27 570 -9Q532 9 485 9Q426 9 391 -15Q356 -39 346 -78Q310 -38 266.5 -17.5Q223 3 178 3Q108 3 60.5 -31.5Q13 -66 13 -128Q13 -156 23 -186L87 -395Q90 -404 90 -410Q90 -421 85 -427.5Q80 -434 70 -441Q60 -449 56 -455Q52 -461 55 -471Q61 -494 118 -511.5Q175 -529 237 -529Q295 -529 322 -507Q349 -485 349 -447Q349 -424 342 -403L279 -195Q275 -184 275 -174Q275 -160 283 -153Q291 -146 304 -146Q323 -146 335 -157Q347 -168 359 -194L420 -395Q423 -404 423 -410Q423 -421 418 -427.5Q413 -434 404 -441Q394 -449 390 -455Q386 -461 389 -471Q394 -494 451 -511.5Q508 -529 570 -529Q628 -529 655.5 -507Q683 -485 683 -448Q683 -429 675 -403Z"/><path id="s564" d="M567 -401Q567 -361 539.5 -335Q512 -309 465 -309Q417 -309 390 -333.5Q363 -358 363 -400Q363 -420 369 -442Q327 -431 294.5 -398.5Q262 -366 251 -313Q245 -283 245 -259Q245 -205 275 -177Q305 -149 361 -149Q393 -149 416 -155.5Q439 -162 463 -173Q483 -183 492 -183Q498 -183 500 -180.5Q502 -178 502 -170Q503 -133 471.5 -92.5Q440 -52 384.5 -24.5Q329 3 260 3Q188 3 132.5 -23.5Q77 -50 46.5 -99.5Q16 -149 16 -215Q16 -246 24 -284Q51 -408 143.5 -471Q236 -534 363 -534Q424 -534 470 -516.5Q516 -499 541.5 -468.5Q567 -438 567 -401Z"/><path id="s566" d="M580 -390Q580 -371 576 -355Q561 -289 492.5 -260.5Q424 -232 331 -232Q284 -232 243 -238Q242 -186 271 -165Q300 -144 352 -144Q376 -144 398 -149.5Q420 -155 454 -166Q482 -176 492 -176Q503 -176 503 -163Q504 -128 477 -89.5Q450 -51 397 -24Q344 3 269 3Q158 3 87 -53Q16 -109 16 -216Q16 -246 24 -286Q49 -409 133.5 -471.5Q218 -534 339 -534Q466 -534 523 -493.5Q580 -453 580 -390ZM261 -297Q303 -297 325 -336Q347 -375 346 -423Q345 -451 330 -451Q319 -451 304 -433.5Q289 -416 274.5 -381Q260 -346 250 -298Q254 -297 261 -297Z"/><g id="t3" transform="translate(311.4 98)"><use href="#s574" transform="translate(0 0) scale(0.02500)"/><use href="#s570" transform="translate(26.2 0) scale(0.02500)"/><use href="#s575" transform="translate(35.4 0) scale(0.02500)"/><use href="#s570" transform="translate(53.2 0) scale(0.02500)"/><use href="#s576" transform="translate(62.4 0) scale(0.02500)"/><use href="#s510" transform="translate(78.8 0) scale(0.02500)"/><use href="#s567" transform="translate(93 0) scale(0.02500)"/><use href="#s579" transform="translate(103.4 0) scale(0.02500)"/><use href="#s576" transform="translate(117.9 0) scale(0.02500)"/><use href="#s574" transform="translate(134.3 0) scale(0.02500)"/><use href="#s510" transform="translate(160.5 0) scale(0.02500)"/><use href="#s580" transform="translate(174.7 0) scale(0.02500)"/><use href="#s576" transform="translate(189.5 0) scale(0.02500)"/><use href="#s582" transform="translate(205.9 0) scale(0.02500)"/><use href="#s579" transform="translate(223.1 0) scale(0.02500)"/><use href="#s564" transform="translate(237.6 0) scale(0.02500)"/><use href="#s566" transform="translate(251.1 0) scale(0.02500)"/></g><path id="K35" d="M40 -642H215V0H40Z"/><path id="K52" d="M333 -642H493V0H343L200 -337V0H40V-642H190L333 -299Z"/><path id="K57" d="M304 -374V-495Q304 -506 298 -511.5Q292 -517 279 -517H246V-642H332Q412 -642 445.5 -608Q479 -574 479 -518V-374ZM304 -147V-387H479V-124Q479 -68 445.5 -34Q412 0 332 0H246V-125H279Q292 -125 298 -130.5Q304 -136 304 -147ZM212 -495V-374H37V-518Q37 -574 70.5 -608Q104 -642 184 -642H270V-517H237Q224 -517 218 -511.5Q212 -506 212 -495ZM212 -387V-147Q212 -136 218 -130.5Q224 -125 237 -125H270V0H184Q104 0 70.5 -34Q37 -68 37 -124V-387Z"/><path id="K31" d="M210 -505V-137Q210 -126 216 -120.5Q222 -115 235 -115H258V0H182Q102 0 68.5 -34Q35 -68 35 -124V-518Q35 -574 68.5 -608Q102 -642 182 -642H262V-527H235Q222 -527 216 -521.5Q210 -516 210 -505ZM471 -355V-244H246V-355ZM296 -422V-505Q296 -516 290 -521.5Q284 -527 271 -527H244V-642H324Q404 -642 437.5 -608Q471 -574 471 -518V-422ZM296 -137V-278H471V-124Q471 -68 437.5 -34Q404 0 324 0H248V-115H271Q284 -115 290 -120.5Q296 -126 296 -137Z"/><path id="K20" d="M40 -642H215V0H40ZM396 -386V-261H115V-386ZM425 -642V-517H102V-642ZM434 -125V0H102V-125Z"/><path id="K73" d="M286 -147V-238Q286 -249 280 -254.5Q274 -260 261 -260H165Q87 -260 58.5 -295Q30 -330 30 -386V-518Q30 -574 63 -608Q96 -642 176 -642H313Q393 -642 426 -608Q459 -574 459 -518V-441H284V-495Q284 -506 278 -511.5Q272 -517 259 -517H230Q217 -517 211 -511.5Q205 -506 205 -495V-400Q205 -389 211 -383.5Q217 -378 230 -378H324Q402 -378 431.5 -345Q461 -312 461 -256V-124Q461 -68 428 -34Q395 0 315 0H179Q99 0 65.5 -34Q32 -68 32 -124V-201H207V-147Q207 -136 213 -130.5Q219 -125 232 -125H261Q274 -125 280 -130.5Q286 -136 286 -147Z"/><path id="K78" d="M128 -582H303V0H128ZM427 -642V-517H5V-642Z"/><path id="K34" d="M360 -379V-254H180V-379ZM40 -642H212V0H40ZM338 -642H510V0H338Z"/><path id="K67" d="M309 -357V-495Q309 -506 303 -511.5Q297 -517 284 -517H98V-642H337Q417 -642 450.5 -608Q484 -574 484 -518V-334Q484 -278 450.5 -244Q417 -210 337 -210H98V-335H284Q297 -335 303 -340.5Q309 -346 309 -357ZM40 -642H215V0H40Z"/><path id="K83" d="M307 -147V-642H482V-124Q482 -68 448.5 -34Q415 0 335 0H249V-125H282Q295 -125 301 -130.5Q307 -136 307 -147ZM215 -642V-147Q215 -136 221 -130.5Q227 -125 240 -125H273V0H187Q107 0 73.5 -34Q40 -68 40 -124V-642Z"/><path id="K46" d="M40 -642H215V0H40ZM98 0V-125H414V0Z"/><g id="t4" transform="translate(308.2 132)"><use href="#K51" transform="translate(0 0) scale(0.02100)"/><use href="#K35" transform="translate(14.7 0) scale(0.02100)"/><use href="#K52" transform="translate(20.7 0) scale(0.02100)"/><use href="#K35" transform="translate(32.5 0) scale(0.02100)"/><use href="#K57" transform="translate(38.5 0) scale(0.02100)"/><use href="#K35" transform="translate(54.8 0) scale(0.02100)"/><use href="#K51" transform="translate(60.8 0) scale(0.02100)"/><use href="#K1" transform="translate(75.5 0) scale(0.02100)"/><use href="#K31" transform="translate(87.5 0) scale(0.02100)"/><use href="#K20" transform="translate(98.7 0) scale(0.02100)"/><use href="#K73" transform="translate(108.7 0) scale(0.02100)"/><use href="#K78" transform="translate(124.5 0) scale(0.02100)"/><use href="#K34" transform="translate(134.2 0) scale(0.02100)"/><use href="#K1" transform="translate(146.4 0) scale(0.02100)"/><use href="#K78" transform="translate(158.4 0) scale(0.02100)"/><use href="#K67" transform="translate(172.9 0) scale(0.02100)"/><use href="#K83" transform="translate(184.1 0) scale(0.02100)"/><use href="#K46" transform="translate(195.7 0) scale(0.02100)"/><use href="#K46" transform="translate(205.1 0) scale(0.02100)"/><use href="#K1" transform="translate(219.2 0) scale(0.02100)"/><use href="#K31" transform="translate(231.3 0) scale(0.02100)"/><use href="#K1" transform="translate(242.4 0) scale(0.02100)"/><use href="#K35" transform="translate(254.4 0) scale(0.02100)"/><use href="#K52" transform="translate(260.4 0) scale(0.02100)"/></g><path id="p704" d="M807 -695V0H693V-476L481 0H402L189 -476V0H75V-695H198L442 -150L685 -695Z"/><path id="p732" d="M60 -697Q60 -728 81 -749Q102 -770 133 -770Q163 -770 184 -749Q205 -728 205 -697Q205 -666 184 -645Q163 -624 133 -624Q102 -624 81 -645Q60 -666 60 -697ZM189 -551V0H75V-551Z"/><path id="p737" d="M579 -325V0H466V-308Q466 -382 429 -421.5Q392 -461 328 -461Q264 -461 226.5 -421.5Q189 -382 189 -308V0H75V-551H189V-488Q217 -522 260.5 -541Q304 -560 353 -560Q418 -560 469.5 -533Q521 -506 550 -453Q579 -400 579 -325Z"/><path id="p700" d="M189 -695V0H75V-695Z"/><path id="p706" d="M37 -349Q37 -451 84.5 -532Q132 -613 213.5 -658.5Q295 -704 392 -704Q490 -704 571.5 -658.5Q653 -613 700 -532Q747 -451 747 -349Q747 -247 700 -165.5Q653 -84 571.5 -38.5Q490 7 392 7Q295 7 213.5 -38.5Q132 -84 84.5 -165.5Q37 -247 37 -349ZM630 -349Q630 -426 599.5 -484Q569 -542 515 -573Q461 -604 392 -604Q323 -604 269 -573Q215 -542 184.5 -484Q154 -426 154 -349Q154 -272 184.5 -213.5Q215 -155 269 -123.5Q323 -92 392 -92Q461 -92 515 -123.5Q569 -155 599.5 -213.5Q630 -272 630 -349Z"/><path id="p742" d="M45 -169H163Q166 -134 196.5 -110.5Q227 -87 273 -87Q321 -87 347.5 -105.5Q374 -124 374 -153Q374 -184 344.5 -199Q315 -214 251 -232Q189 -249 150 -265Q111 -281 82.5 -314Q54 -347 54 -401Q54 -445 80 -481.5Q106 -518 154.5 -539Q203 -560 266 -560Q360 -560 417.5 -512.5Q475 -465 479 -383H365Q362 -420 335 -442Q308 -464 262 -464Q217 -464 193 -447Q169 -430 169 -402Q169 -380 185 -365Q201 -350 224 -341.5Q247 -333 292 -320Q352 -304 390.5 -287.5Q429 -271 457 -239Q485 -207 486 -154Q486 -107 460 -70Q434 -33 386.5 -12Q339 9 275 9Q210 9 158.5 -14.5Q107 -38 77 -78.5Q47 -119 45 -169Z"/><path id="p728" d="M576 -233H155Q160 -167 204 -127Q248 -87 312 -87Q404 -87 442 -164H565Q540 -88 474.5 -39.5Q409 9 312 9Q233 9 170.5 -26.5Q108 -62 72.5 -126.5Q37 -191 37 -276Q37 -361 71.5 -425.5Q106 -490 168.5 -525Q231 -560 312 -560Q390 -560 451 -526Q512 -492 546 -430.5Q580 -369 580 -289Q580 -258 576 -233ZM461 -325Q460 -388 416 -426Q372 -464 307 -464Q248 -464 206 -426.5Q164 -389 156 -325Z"/><path id="p741" d="M354 -560V-442H325Q258 -442 223.5 -408Q189 -374 189 -290V0H75V-551H189V-471Q214 -513 255.5 -536.5Q297 -560 354 -560Z"/><path id="p745" d="M288 -102 444 -551H565L355 0H219L10 -551H132Z"/><path id="p670" d="M612 -313H410V-106H304V-313H102V-409H304V-616H410V-409H612Z"/><path id="p736" d="M969 -325V0H856V-308Q856 -382 819 -421.5Q782 -461 718 -461Q654 -461 616.5 -421.5Q579 -382 579 -308V0H466V-308Q466 -382 429 -421.5Q392 -461 328 -461Q264 -461 226.5 -421.5Q189 -382 189 -308V0H75V-551H189V-488Q217 -522 260 -541Q303 -560 352 -560Q418 -560 470 -532Q522 -504 550 -451Q575 -501 628 -530.5Q681 -560 742 -560Q807 -560 858.5 -533Q910 -506 939.5 -453Q969 -400 969 -325Z"/><path id="p726" d="M307 -560Q407 -560 472.5 -512.5Q538 -465 561 -377H438Q423 -418 390 -441Q357 -464 307 -464Q237 -464 195.5 -414.5Q154 -365 154 -276Q154 -187 195.5 -137Q237 -87 307 -87Q406 -87 438 -174H561Q537 -90 471 -40.5Q405 9 307 9Q228 9 167 -26.5Q106 -62 71.5 -126.5Q37 -191 37 -276Q37 -361 71.5 -425.5Q106 -490 167 -525Q228 -560 307 -560Z"/><path id="p725" d="M381 -560Q454 -560 513 -525Q572 -490 606 -425.5Q640 -361 640 -278Q640 -195 606 -129.5Q572 -64 512.5 -27.5Q453 9 381 9Q317 9 267.5 -16Q218 -41 189 -80V0H75V-740H189V-469Q218 -509 268.5 -534.5Q319 -560 381 -560ZM356 -461Q313 -461 274.5 -439Q236 -417 212.5 -375Q189 -333 189 -276Q189 -219 212.5 -176.5Q236 -134 274.5 -112Q313 -90 356 -90Q400 -90 438.5 -112.5Q477 -135 500.5 -178Q524 -221 524 -278Q524 -335 500.5 -376.5Q477 -418 438.5 -439.5Q400 -461 356 -461Z"/><path id="p744" d="M574 -551V0H460V-65Q433 -31 389.5 -11.5Q346 8 297 8Q232 8 180.5 -19Q129 -46 99.5 -99Q70 -152 70 -227V-551H183V-244Q183 -170 220 -130.5Q257 -91 321 -91Q385 -91 422.5 -130.5Q460 -170 460 -244V-551Z"/><path id="p735" d="M189 -740V0H75V-740Z"/><path id="p743" d="M208 -458V-153Q208 -122 222.5 -108.5Q237 -95 272 -95H342V0H252Q175 0 134 -36Q93 -72 93 -153V-458H28V-551H93V-688H208V-551H342V-458Z"/><path id="p729" d="M306 -458H204V0H89V-458H24V-551H89V-590Q89 -685 139.5 -728.5Q190 -772 298 -772V-677Q246 -677 225 -657.5Q204 -638 204 -590V-551H306Z"/><path id="p738" d="M38 -276Q38 -360 75 -425Q112 -490 176 -525Q240 -560 319 -560Q398 -560 462 -525Q526 -490 563 -425Q600 -360 600 -276Q600 -192 562 -127Q524 -62 458.5 -26.5Q393 9 314 9Q236 9 173 -26.5Q110 -62 74 -126.5Q38 -191 38 -276ZM483 -276Q483 -336 460 -377.5Q437 -419 399 -440Q361 -461 317 -461Q273 -461 235.5 -440Q198 -419 176 -377.5Q154 -336 154 -276Q154 -187 199.5 -138.5Q245 -90 314 -90Q358 -90 396.5 -111Q435 -132 459 -174Q483 -216 483 -276Z"/><g id="t5" transform="translate(304 172)"><use href="#p704" transform="translate(0 0) scale(0.01800)"/><use href="#p732" transform="translate(15.9 0) scale(0.01800)"/><use href="#p737" transform="translate(20.6 0) scale(0.01800)"/><use href="#p700" transform="translate(32.3 0) scale(0.01800)"/><use href="#p706" transform="translate(37.1 0) scale(0.01800)"/><use href="#p742" transform="translate(55.9 0) scale(0.01800)"/><use href="#p728" transform="translate(65.5 0) scale(0.01800)"/><use href="#p741" transform="translate(76.6 0) scale(0.01800)"/><use href="#p745" transform="translate(83.5 0) scale(0.01800)"/><use href="#p728" transform="translate(93.9 0) scale(0.01800)"/><use href="#p741" transform="translate(105 0) scale(0.01800)"/><use href="#p670" transform="translate(116.6 0) scale(0.01800)"/><use href="#p736" transform="translate(134.1 0) scale(0.01800)"/><use href="#p726" transform="translate(152.8 0) scale(0.01800)"/><use href="#p725" transform="translate(168.3 0) scale(0.01800)"/><use href="#p744" transform="translate(180.5 0) scale(0.01800)"/><use href="#p732" transform="translate(192.2 0) scale(0.01800)"/><use href="#p735" transform="translate(196.9 0) scale(0.01800)"/><use href="#p743" transform="translate(201.7 0) scale(0.01800)"/><use href="#p729" transform="translate(213 0) scale(0.01800)"/><use href="#p741" transform="translate(219 0) scale(0.01800)"/><use href="#p738" transform="translate(225.9 0) scale(0.01800)"/><use href="#p736" transform="translate(237.4 0) scale(0.01800)"/></g><path id="p724" d="M297 -560Q362 -560 410.5 -534.5Q459 -509 488 -471V-551H603V0H488V-82Q459 -43 409 -17Q359 9 295 9Q224 9 165 -27.5Q106 -64 71.5 -129.5Q37 -195 37 -278Q37 -361 71.5 -425Q106 -489 165.5 -524.5Q225 -560 297 -560ZM321 -461Q277 -461 239 -439.5Q201 -418 177.5 -376.5Q154 -335 154 -278Q154 -221 177.5 -178Q201 -135 239.5 -112.5Q278 -90 321 -90Q365 -90 403 -112Q441 -134 464.5 -176.5Q488 -219 488 -276Q488 -333 464.5 -375Q441 -417 403 -439Q365 -461 321 -461Z"/><path id="p739" d="M381 -560Q453 -560 512.5 -524.5Q572 -489 606 -425Q640 -361 640 -278Q640 -195 606 -129.5Q572 -64 512.5 -27.5Q453 9 381 9Q318 9 269 -16.5Q220 -42 189 -80V262H75V-551H189V-470Q218 -508 268 -534Q318 -560 381 -560ZM356 -461Q313 -461 274.5 -439Q236 -417 212.5 -375Q189 -333 189 -276Q189 -219 212.5 -176.5Q236 -134 274.5 -112Q313 -90 356 -90Q400 -90 438.5 -112.5Q477 -135 500.5 -178Q524 -221 524 -278Q524 -335 500.5 -376.5Q477 -418 438.5 -439.5Q400 -461 356 -461Z"/><path id="p727" d="M298 -560Q352 -560 404.5 -536.5Q457 -513 488 -474V-740H603V0H488V-83Q460 -43 410.5 -17Q361 9 297 9Q225 9 165.5 -27.5Q106 -64 71.5 -129.5Q37 -195 37 -278Q37 -361 71.5 -425Q106 -489 165.5 -524.5Q225 -560 298 -560ZM321 -461Q277 -461 239 -439.5Q201 -418 177.5 -376.5Q154 -335 154 -278Q154 -221 177.5 -178Q201 -135 239.5 -112.5Q278 -90 321 -90Q365 -90 403 -112Q441 -134 464.5 -176.5Q488 -219 488 -276Q488 -333 464.5 -375Q441 -417 403 -439Q365 -461 321 -461Z"/><path id="p671" d="M200 -137 79 139H5L76 -137Z"/><g id="t6" transform="translate(304 197.6)"><use href="#p742" transform="translate(0 0) scale(0.01800)"/><use href="#p738" transform="translate(9.6 0) scale(0.01800)"/><use href="#p744" transform="translate(21.1 0) scale(0.01800)"/><use href="#p741" transform="translate(32.8 0) scale(0.01800)"/><use href="#p726" transform="translate(39.7 0) scale(0.01800)"/><use href="#p728" transform="translate(50.5 0) scale(0.01800)"/><use href="#p724" transform="translate(66.3 0) scale(0.01800)"/><use href="#p743" transform="translate(78.5 0) scale(0.01800)"/><use href="#p739" transform="translate(89.9 0) scale(0.01800)"/><use href="#p732" transform="translate(102.1 0) scale(0.01800)"/><use href="#p737" transform="translate(106.8 0) scale(0.01800)"/><use href="#p737" transform="translate(118.5 0) scale(0.01800)"/><use href="#p728" transform="translate(130.2 0) scale(0.01800)"/><use href="#p727" transform="translate(141.3 0) scale(0.01800)"/><use href="#p671" transform="translate(153.5 0) scale(0.01800)"/></g><path id="p672" d="M498 -410V-314H87V-410Z"/><path id="p673" d="M48 -66Q48 -97 69 -118Q90 -139 121 -139Q151 -139 172 -118Q193 -97 193 -66Q193 -35 172 -14Q151 7 121 7Q90 7 69 -14Q48 -35 48 -66Z"/><g id="t7" transform="translate(304 223.1)"><use href="#p726" transform="translate(0 0) scale(0.01800)"/><use href="#p738" transform="translate(10.8 0) scale(0.01800)"/><use href="#p736" transform="translate(22.3 0) scale(0.01800)"/><use href="#p736" transform="translate(41 0) scale(0.01800)"/><use href="#p732" transform="translate(59.7 0) scale(0.01800)"/><use href="#p743" transform="translate(64.4 0) scale(0.01800)"/><use href="#p672" transform="translate(71.1 0) scale(0.01800)"/><use href="#p745" transform="translate(81.7 0) scale(0.01800)"/><use href="#p728" transform="translate(92 0) scale(0.01800)"/><use href="#p741" transform="translate(103.1 0) scale(0.01800)"/><use href="#p732" transform="translate(110.1 0) scale(0.01800)"/><use href="#p729" transform="translate(114.8 0) scale(0.01800)"/><use href="#p732" transform="translate(120.8 0) scale(0.01800)"/><use href="#p728" transform="translate(125.5 0) scale(0.01800)"/><use href="#p727" transform="translate(136.6 0) scale(0.01800)"/><use href="#p741" transform="translate(153.5 0) scale(0.01800)"/><use href="#p728" transform="translate(160.4 0) scale(0.01800)"/><use href="#p735" transform="translate(171.5 0) scale(0.01800)"/><use href="#p728" transform="translate(176.3 0) scale(0.01800)"/><use href="#p724" transform="translate(187.4 0) scale(0.01800)"/><use href="#p742" transform="translate(199.6 0) scale(0.01800)"/><use href="#p728" transform="translate(209.2 0) scale(0.01800)"/><use href="#p742" transform="translate(220.3 0) scale(0.01800)"/><use href="#p673" transform="translate(229.9 0) scale(0.01800)"/></g><path id="p731" d="M579 -325V0H466V-308Q466 -382 429 -421.5Q392 -461 328 -461Q264 -461 226.5 -421.5Q189 -382 189 -308V0H75V-740H189V-487Q218 -522 262.5 -541Q307 -560 360 -560Q423 -560 472.5 -533Q522 -506 550.5 -453Q579 -400 579 -325Z"/><path id="p730" d="M488 -471V-551H603V9Q603 85 571 144.5Q539 204 478.5 238Q418 272 334 272Q222 272 148 219.5Q74 167 64 77H177Q190 120 232.5 146.5Q275 173 334 173Q403 173 445.5 131Q488 89 488 9V-83Q459 -44 409.5 -17.5Q360 9 297 9Q225 9 165.5 -27.5Q106 -64 71.5 -129.5Q37 -195 37 -278Q37 -361 71.5 -425Q106 -489 165.5 -524.5Q225 -560 297 -560Q361 -560 410.5 -534.5Q460 -509 488 -471ZM321 -461Q277 -461 239 -439.5Q201 -418 177.5 -376.5Q154 -335 154 -278Q154 -221 177.5 -178Q201 -135 239.5 -112.5Q278 -90 321 -90Q365 -90 403 -112Q441 -134 464.5 -176.5Q488 -219 488 -276Q488 -333 464.5 -375Q441 -417 403 -439Q365 -461 321 -461Z"/><path id="p698" d="M578 -495Q551 -547 503 -573.5Q455 -600 392 -600Q323 -600 269 -569Q215 -538 184.5 -481Q154 -424 154 -349Q154 -274 184.5 -216.5Q215 -159 269 -128Q323 -97 392 -97Q485 -97 543 -149Q601 -201 614 -290H353V-381H736V-292Q725 -211 678.5 -143Q632 -75 557.5 -34.5Q483 6 392 6Q294 6 213 -39.5Q132 -85 84.5 -166Q37 -247 37 -349Q37 -451 84.5 -532Q132 -613 213.5 -658.5Q295 -704 392 -704Q503 -704 589.5 -649.5Q676 -595 715 -495Z"/><path id="p699" d="M630 -695V0H516V-304H189V0H75V-695H189V-397H516V-695Z"/><path id="p694" d="M392 -704Q503 -704 589.5 -649.5Q676 -595 715 -495H578Q551 -550 503 -577Q455 -604 392 -604Q323 -604 269 -573Q215 -542 184.5 -484Q154 -426 154 -349Q154 -272 184.5 -214Q215 -156 269 -124.5Q323 -93 392 -93Q455 -93 503 -120Q551 -147 578 -202H715Q676 -102 589.5 -48Q503 6 392 6Q294 6 213 -39.5Q132 -85 84.5 -166Q37 -247 37 -349Q37 -451 84.5 -532Q132 -613 213.5 -658.5Q295 -704 392 -704Z"/><path id="p709" d="M436 0 276 -278H189V0H75V-695H315Q395 -695 450.5 -667Q506 -639 533.5 -592Q561 -545 561 -487Q561 -419 521.5 -363.5Q482 -308 400 -288L572 0ZM189 -369H315Q379 -369 411.5 -401Q444 -433 444 -487Q444 -541 412 -571.5Q380 -602 315 -602H189Z"/><g id="t8" transform="translate(304 248.7)"><use href="#p704" transform="translate(0 0) scale(0.01800)"/><use href="#p744" transform="translate(15.9 0) scale(0.01800)"/><use href="#p735" transform="translate(27.6 0) scale(0.01800)"/><use href="#p743" transform="translate(32.3 0) scale(0.01800)"/><use href="#p732" transform="translate(39 0) scale(0.01800)"/><use href="#p672" transform="translate(43.8 0) scale(0.01800)"/><use href="#p724" transform="translate(54.3 0) scale(0.01800)"/><use href="#p741" transform="translate(66.5 0) scale(0.01800)"/><use href="#p726" transform="translate(73.4 0) scale(0.01800)"/><use href="#p731" transform="translate(84.2 0) scale(0.01800)"/><use href="#p732" transform="translate(100.6 0) scale(0.01800)"/><use href="#p736" transform="translate(105.3 0) scale(0.01800)"/><use href="#p724" transform="translate(124 0) scale(0.01800)"/><use href="#p730" transform="translate(136.2 0) scale(0.01800)"/><use href="#p728" transform="translate(148.4 0) scale(0.01800)"/><use href="#p742" transform="translate(159.5 0) scale(0.01800)"/><use href="#p738" transform="translate(173.8 0) scale(0.01800)"/><use href="#p737" transform="translate(185.3 0) scale(0.01800)"/><use href="#p698" transform="translate(201.7 0) scale(0.01800)"/><use href="#p699" transform="translate(215.6 0) scale(0.01800)"/><use href="#p694" transform="translate(228.3 0) scale(0.01800)"/><use href="#p709" transform="translate(242.2 0) scale(0.01800)"/><use href="#p671" transform="translate(253.6 0) scale(0.01800)"/></g><path id="p734" d="M293 -275 547 0H393L189 -237V0H75V-740H189V-310L389 -551H547Z"/><path id="p746" d="M815 -551 644 0H524L413 -407L302 0H182L10 -551H126L241 -108L358 -551H477L589 -110L703 -551Z"/><path id="p710" d="M58 -192H180Q184 -147 215.5 -118Q247 -89 304 -89Q363 -89 396 -117.5Q429 -146 429 -191Q429 -226 408.5 -248Q388 -270 357.5 -282Q327 -294 273 -308Q205 -326 162.5 -344.5Q120 -363 90 -402Q60 -441 60 -506Q60 -566 90 -611Q120 -656 174 -680Q228 -704 299 -704Q400 -704 464.5 -653.5Q529 -603 536 -515H410Q407 -553 374 -580Q341 -607 287 -607Q238 -607 207 -582Q176 -557 176 -510Q176 -478 195.5 -457.5Q215 -437 245 -425Q275 -413 327 -399Q396 -380 439.5 -361Q483 -342 513.5 -302.5Q544 -263 544 -197Q544 -144 515.5 -97Q487 -50 432.5 -21.5Q378 7 304 7Q234 7 178 -17.5Q122 -42 90 -87Q58 -132 58 -192Z"/><path id="p693" d="M581 -187Q581 -134 553.5 -91.5Q526 -49 474 -24.5Q422 0 353 0H75V-695H340Q411 -695 462 -671Q513 -647 539 -606.5Q565 -566 565 -516Q565 -456 533 -416Q501 -376 447 -357Q503 -347 542 -298Q581 -249 581 -187ZM189 -403H330Q386 -403 417.5 -428.5Q449 -454 449 -502Q449 -549 417.5 -575.5Q386 -602 330 -602H189ZM467 -199Q467 -250 432 -280Q397 -310 339 -310H189V-93H343Q401 -93 434 -121Q467 -149 467 -199Z"/><g id="t9" transform="translate(304 274.2)"><use href="#p742" transform="translate(0 0) scale(0.01800)"/><use href="#p736" transform="translate(9.6 0) scale(0.01800)"/><use href="#p738" transform="translate(28.3 0) scale(0.01800)"/><use href="#p734" transform="translate(39.8 0) scale(0.01800)"/><use href="#p728" transform="translate(49.8 0) scale(0.01800)"/><use href="#p672" transform="translate(60.9 0) scale(0.01800)"/><use href="#p743" transform="translate(71.4 0) scale(0.01800)"/><use href="#p728" transform="translate(78.1 0) scale(0.01800)"/><use href="#p742" transform="translate(89.2 0) scale(0.01800)"/><use href="#p743" transform="translate(98.8 0) scale(0.01800)"/><use href="#p728" transform="translate(105.5 0) scale(0.01800)"/><use href="#p727" transform="translate(116.6 0) scale(0.01800)"/><use href="#p732" transform="translate(133.5 0) scale(0.01800)"/><use href="#p737" transform="translate(138.3 0) scale(0.01800)"/><use href="#p694" transform="translate(154.6 0) scale(0.01800)"/><use href="#p700" transform="translate(168.5 0) scale(0.01800)"/><use href="#p671" transform="translate(173.3 0) scale(0.01800)"/><use href="#p746" transform="translate(182 0) scale(0.01800)"/><use href="#p732" transform="translate(196.9 0) scale(0.01800)"/><use href="#p743" transform="translate(201.6 0) scale(0.01800)"/><use href="#p731" transform="translate(208.3 0) scale(0.01800)"/><use href="#p710" transform="translate(224.7 0) scale(0.01800)"/><use href="#p693" transform="translate(235.5 0) scale(0.01800)"/><use href="#p706" transform="translate(246.9 0) scale(0.01800)"/><use href="#p704" transform="translate(261 0) scale(0.01800)"/></g><path id="p712" d="M188 -695V-252Q188 -173 229.5 -133Q271 -93 345 -93Q420 -93 461.5 -133Q503 -173 503 -252V-695H617V-254Q617 -169 580 -110Q543 -51 481 -22Q419 7 344 7Q269 7 207.5 -22Q146 -51 110 -110Q74 -169 74 -254V-695Z"/><g id="t10" transform="translate(304 299.8)"><use href="#p724" transform="translate(0 0) scale(0.01800)"/><use href="#p737" transform="translate(12.2 0) scale(0.01800)"/><use href="#p727" transform="translate(23.9 0) scale(0.01800)"/><use href="#p739" transform="translate(40.8 0) scale(0.01800)"/><use href="#p741" transform="translate(53 0) scale(0.01800)"/><use href="#p738" transform="translate(59.9 0) scale(0.01800)"/><use href="#p745" transform="translate(71.4 0) scale(0.01800)"/><use href="#p728" transform="translate(81.7 0) scale(0.01800)"/><use href="#p737" transform="translate(92.8 0) scale(0.01800)"/><use href="#p724" transform="translate(104.5 0) scale(0.01800)"/><use href="#p737" transform="translate(116.7 0) scale(0.01800)"/><use href="#p726" transform="translate(128.4 0) scale(0.01800)"/><use href="#p728" transform="translate(139.2 0) scale(0.01800)"/><use href="#p673" transform="translate(150.3 0) scale(0.01800)"/><use href="#p712" transform="translate(159.3 0) scale(0.01800)"/><use href="#p737" transform="translate(171.8 0) scale(0.01800)"/><use href="#p738" transform="translate(183.4 0) scale(0.01800)"/><use href="#p729" transform="translate(194.9 0) scale(0.01800)"/><use href="#p729" transform="translate(200.9 0) scale(0.01800)"/><use href="#p732" transform="translate(206.9 0) scale(0.01800)"/><use href="#p726" transform="translate(211.6 0) scale(0.01800)"/><use href="#p732" transform="translate(222.4 0) scale(0.01800)"/><use href="#p724" transform="translate(227.2 0) scale(0.01800)"/><use href="#p735" transform="translate(239.4 0) scale(0.01800)"/><use href="#p673" transform="translate(244.1 0) scale(0.01800)"/></g><path id="K13" d="M210 -505V-137Q210 -126 216 -120.5Q222 -115 235 -115H261V0H182Q102 0 68.5 -34Q35 -68 35 -124V-518Q35 -574 68.5 -608Q102 -642 182 -642H261V-527H235Q222 -527 216 -521.5Q210 -516 210 -505ZM295 -402V-505Q295 -516 289 -521.5Q283 -527 270 -527H244V-642H323Q403 -642 436.5 -608Q470 -574 470 -518V-402ZM295 -137V-236H470V-124Q470 -68 436.5 -34Q403 0 323 0H244V-115H270Q283 -115 289 -120.5Q295 -126 295 -137Z"/><path id="K44" d="M216 -328H398L524 0H336ZM398 -328H216L335 -642H523ZM40 -642H215V0H40Z"/><g id="t11" transform="translate(313.6 342)"><use href="#K17" transform="translate(0 0) scale(0.01700)"/><use href="#K57" transform="translate(9.7 0) scale(0.01700)"/><use href="#K13" transform="translate(19.1 0) scale(0.01700)"/><use href="#K44" transform="translate(28.2 0) scale(0.01700)"/><use href="#K20" transform="translate(37.9 0) scale(0.01700)"/><use href="#K69" transform="translate(46.2 0) scale(0.01700)"/></g><g id="t12" transform="translate(394.6 342)"><use href="#K31" transform="translate(0 0) scale(0.01700)"/><use href="#K34" transform="translate(9.2 0) scale(0.01700)"/><use href="#K13" transform="translate(19.2 0) scale(0.01700)"/><use href="#K69" transform="translate(28.3 0) scale(0.01700)"/></g><path id="K486" d="M15 -257V-382H498V-257ZM175 -537H338V-102H175Z"/><g id="t13" transform="translate(457.7 342)"><use href="#K1" transform="translate(0 0) scale(0.01700)"/><use href="#K51" transform="translate(9.9 0) scale(0.01700)"/><use href="#K17" transform="translate(22 0) scale(0.01700)"/><use href="#K379" transform="translate(31.7 0) scale(0.01700)"/><use href="#K375" transform="translate(40.7 0) scale(0.01700)"/><use href="#K486" transform="translate(54.1 0) scale(0.01700)"/><use href="#K1" transform="translate(67.6 0) scale(0.01700)"/><use href="#K69" transform="translate(77.5 0) scale(0.01700)"/><use href="#K51" transform="translate(86.9 0) scale(0.01700)"/><use href="#K379" transform="translate(99 0) scale(0.01700)"/><use href="#K375" transform="translate(108.1 0) scale(0.01700)"/></g></defs><rect x="4" y="8" width="632" height="390" rx="26" fill="#120d0a" opacity=".35"/><rect x="4" y="4" width="632" height="390" rx="26" fill="#120d0a"/><rect x="10" y="10" width="620" height="378" rx="21" fill="url(#tp1)"/><g clip-path="url(#cframe)"><g transform="rotate(20 10 199)"><rect x="-95" y="-368" width="70" height="1134" fill="url(#gl1)" style="--d:830px;animation:sweep 6s ease-in-out -2.3s infinite"/></g></g><rect x="27" y="27" width="586" height="344" rx="12" fill="#120d0a"/><rect x="30" y="30" width="580" height="338" rx="10" fill="#0d0b16"/><path d="M34 366L34 104Q34 42 155 34Q276 42 276 104L276 366Z" fill="#f2c14e" stroke="#120d0a" stroke-width="3"/><path d="M40 360L40 110Q40 48 155 40Q270 48 270 110L270 360Z" fill="url(#gr1)"/><g clip-path="url(#artclip)"><g transform="translate(40 40)"><circle cx="176" cy="74" r="34" fill="#ffe08a"/><path d="M-10 268C40 244 90 244 140 262C180 276 210 262 240 252L240 330L-10 330Z" fill="#e08a2e"/><path d="M-10 290C50 274 110 280 170 292C200 298 220 294 240 290L240 330L-10 330Z" fill="#c76a1c"/><g transform="translate(-10 10) scale(.94)"><g style="transform-origin:80px 214px;animation:legA 1.2s ease-in-out infinite"><path d="M80 214Q80 214 75.8 217.8Q71.6 221.6 70.6 224.9Q69.6 228.2 69.6 231.4Q69.7 234.5 69.8 237.5Q69.9 240.6 70.1 243.6Q70.2 246.6 70.5 249.7Q70.7 252.7 71 255.8Q71.3 258.9 71.7 262.1Q72.1 265.3 72.6 268.6Q73.1 271.9 73.7 275.4Q74.3 278.9 75.1 282.6Q75.8 286.2 74.7 290.1Q73.5 294 78 294Q82.5 294 81.4 290.2Q80.3 286.3 81.3 282.8Q82.3 279.2 83.2 275.9Q84.1 272.5 85 269.3Q85.9 266.1 86.6 263Q87.4 259.9 88.1 256.9Q88.8 253.8 89.4 250.7Q90 247.6 90.4 244.5Q90.8 241.3 91.1 238.1Q91.4 234.8 91.5 231.4Q91.5 228 90.3 224.5Q89.1 220.9 84.6 217.5Q80 214 80 214Z" fill="#120d0a"/><path d="M80 214Q80 214 77 217.8Q74 221.5 73.3 224.9Q72.5 228.2 72.6 231.4Q72.6 234.5 72.7 237.6Q72.8 240.7 72.8 243.7Q72.9 246.8 73 249.8Q73.2 252.8 73.3 255.9Q73.5 259 73.7 262.2Q74 265.4 74.3 268.7Q74.6 272 75 275.5Q75.4 278.9 75.9 282.6Q76.5 286.2 75.7 290.1Q75 294 78 294Q81 294 80.4 290.2Q79.7 286.3 80.4 282.7Q81.2 279.2 81.9 275.8Q82.6 272.4 83.3 269.2Q84 266 84.6 262.9Q85.2 259.8 85.8 256.7Q86.3 253.7 86.8 250.6Q87.3 247.5 87.6 244.4Q88 241.2 88.2 238Q88.4 234.8 88.5 231.4Q88.5 228 87.6 224.5Q86.8 221 83.4 217.5Q80 214 80 214Z" fill="#b9783c"/><ellipse cx="78" cy="294" rx="10" ry="5" fill="#120d0a"/><circle cx="80" cy="256" r="5" fill="#b9783c" stroke="#120d0a" stroke-width="2"/></g><g style="transform-origin:170px 214px;animation:legB 1.2s ease-in-out infinite"><path d="M170 214Q170 214 165.8 217.8Q161.6 221.6 160.6 224.9Q159.6 228.2 159.6 231.4Q159.7 234.5 159.8 237.5Q159.9 240.6 160.1 243.6Q160.2 246.6 160.5 249.7Q160.7 252.7 161 255.8Q161.3 258.9 161.7 262.1Q162.1 265.3 162.6 268.6Q163.1 271.9 163.7 275.4Q164.3 278.9 165.1 282.6Q165.8 286.2 164.7 290.1Q163.5 294 168 294Q172.5 294 171.4 290.2Q170.3 286.3 171.3 282.8Q172.3 279.2 173.2 275.9Q174.1 272.5 175 269.3Q175.9 266.1 176.6 263Q177.4 259.9 178.1 256.9Q178.8 253.8 179.4 250.7Q180 247.6 180.4 244.5Q180.8 241.3 181.1 238.1Q181.4 234.8 181.5 231.4Q181.5 228 180.3 224.5Q179.1 220.9 174.6 217.5Q170 214 170 214Z" fill="#120d0a"/><path d="M170 214Q170 214 167 217.8Q164 221.5 163.3 224.9Q162.5 228.2 162.6 231.4Q162.6 234.5 162.7 237.6Q162.8 240.7 162.8 243.7Q162.9 246.8 163 249.8Q163.2 252.8 163.3 255.9Q163.5 259 163.7 262.2Q164 265.4 164.3 268.7Q164.6 272 165 275.5Q165.4 278.9 165.9 282.6Q166.5 286.2 165.7 290.1Q165 294 168 294Q171 294 170.4 290.2Q169.7 286.3 170.4 282.7Q171.2 279.2 171.9 275.8Q172.6 272.4 173.3 269.2Q174 266 174.6 262.9Q175.2 259.8 175.8 256.7Q176.3 253.7 176.8 250.6Q177.3 247.5 177.6 244.4Q178 241.2 178.2 238Q178.4 234.8 178.5 231.4Q178.5 228 177.6 224.5Q176.8 221 173.4 217.5Q170 214 170 214Z" fill="#b9783c"/><ellipse cx="168" cy="294" rx="10" ry="5" fill="#120d0a"/><circle cx="170" cy="256" r="5" fill="#b9783c" stroke="#120d0a" stroke-width="2"/></g><g style="animation:walk 1.2s ease-in-out infinite"><g style="transform-origin:66px 214px;animation:legB 1.2s ease-in-out infinite"><path d="M66 214Q66 214 62.1 218.1Q58.1 222.1 57.3 225.5Q56.4 228.8 56.6 231.9Q56.9 235 57.1 238Q57.3 241 57.6 243.9Q57.8 246.9 58.1 249.9Q58.4 252.9 58.8 255.9Q59.1 259 59.6 262.2Q60 265.3 60.5 268.7Q61 272 61.7 275.4Q62.3 278.9 63.1 282.6Q63.8 286.2 62.7 290.1Q61.5 294 66 294Q70.5 294 69.4 290.2Q68.3 286.3 69.3 282.8Q70.3 279.2 71.2 275.8Q72.1 272.5 72.9 269.3Q73.8 266.1 74.5 262.9Q75.3 259.8 75.9 256.7Q76.6 253.6 77.1 250.5Q77.6 247.4 77.9 244.2Q78.2 241 78.4 237.7Q78.5 234.3 78.4 230.9Q78.4 227.4 77 223.9Q75.6 220.4 70.8 217.2Q66 214 66 214Z" fill="#120d0a"/><path d="M66 214Q66 214 63.2 217.9Q60.5 221.9 59.9 225.3Q59.4 228.6 59.6 231.8Q59.8 234.9 60 237.9Q60.2 241 60.3 244Q60.5 247 60.7 250Q60.9 253 61.1 256Q61.3 259.1 61.6 262.3Q61.9 265.4 62.2 268.7Q62.5 272 63 275.5Q63.4 278.9 63.9 282.6Q64.5 286.2 63.7 290.1Q63 294 66 294Q69 294 68.4 290.2Q67.7 286.3 68.4 282.7Q69.2 279.1 69.9 275.8Q70.6 272.4 71.2 269.2Q71.9 266 72.5 262.8Q73.1 259.7 73.6 256.6Q74.1 253.5 74.5 250.4Q74.9 247.3 75.1 244.1Q75.4 241 75.5 237.7Q75.6 234.4 75.5 231Q75.4 227.6 74.3 224.1Q73.2 220.6 69.6 217.3Q66 214 66 214Z" fill="#b9783c"/><ellipse cx="66" cy="294" rx="10" ry="5" fill="#120d0a"/><circle cx="68" cy="256" r="5" fill="#b9783c" stroke="#120d0a" stroke-width="2"/></g><g style="transform-origin:158px 214px;animation:legA 1.2s ease-in-out infinite"><path d="M158 214Q158 214 154.1 218.1Q150.1 222.1 149.3 225.5Q148.4 228.8 148.6 231.9Q148.9 235 149.1 238Q149.3 241 149.6 243.9Q149.8 246.9 150.1 249.9Q150.4 252.9 150.8 255.9Q151.1 259 151.6 262.2Q152 265.3 152.5 268.7Q153 272 153.7 275.4Q154.3 278.9 155.1 282.6Q155.8 286.2 154.7 290.1Q153.5 294 158 294Q162.5 294 161.4 290.2Q160.3 286.3 161.3 282.8Q162.3 279.2 163.2 275.8Q164.1 272.5 164.9 269.3Q165.8 266.1 166.5 262.9Q167.3 259.8 167.9 256.7Q168.6 253.6 169.1 250.5Q169.6 247.4 169.9 244.2Q170.2 241 170.4 237.7Q170.5 234.3 170.4 230.9Q170.4 227.4 169 223.9Q167.6 220.4 162.8 217.2Q158 214 158 214Z" fill="#120d0a"/><path d="M158 214Q158 214 155.2 217.9Q152.5 221.9 151.9 225.3Q151.4 228.6 151.6 231.8Q151.8 234.9 152 237.9Q152.2 241 152.3 244Q152.5 247 152.7 250Q152.9 253 153.1 256Q153.3 259.1 153.6 262.3Q153.9 265.4 154.2 268.7Q154.5 272 155 275.5Q155.4 278.9 155.9 282.6Q156.5 286.2 155.7 290.1Q155 294 158 294Q161 294 160.4 290.2Q159.7 286.3 160.4 282.7Q161.2 279.1 161.9 275.8Q162.6 272.4 163.2 269.2Q163.9 266 164.5 262.8Q165.1 259.7 165.6 256.6Q166.1 253.5 166.5 250.4Q166.9 247.3 167.1 244.1Q167.4 241 167.5 237.7Q167.6 234.4 167.5 231Q167.4 227.6 166.3 224.1Q165.2 220.6 161.6 217.3Q158 214 158 214Z" fill="#b9783c"/><ellipse cx="158" cy="294" rx="10" ry="5" fill="#120d0a"/><circle cx="160" cy="256" r="5" fill="#b9783c" stroke="#120d0a" stroke-width="2"/></g><path d="M36 204C30 172 54 154 70 146C82 116 116 108 132 134C146 150 168 158 180 176C190 194 184 222 162 230L72 234C52 234 40 224 36 204Z" fill="#120d0a" stroke="#120d0a" stroke-width="8" stroke-linejoin="round"/><path d="M36 204C30 172 54 154 70 146C82 116 116 108 132 134C146 150 168 158 180 176C190 194 184 222 162 230L72 234C52 234 40 224 36 204Z" fill="#e2a866"/><path d="M60 222Q60 222 64.8 224.2Q69.6 226.3 74.5 228Q79.4 229.7 84.3 231Q89.2 232.4 94.2 233.3Q99.2 234.2 104.1 234.7Q109 235.3 113.9 235.3Q118.8 235.4 123.5 235.2Q128.3 234.9 132.9 234.3Q137.5 233.7 141.9 232.7Q146.4 231.8 150.6 230.5Q154.8 229.2 158.8 227.6Q162.7 226 166.4 224Q170 222 170 222Q170 222 165.9 222.3Q161.8 222.6 157.7 222.9Q153.6 223.1 149.4 223.3Q145.2 223.5 140.9 223.6Q136.6 223.6 132.2 223.7Q127.8 223.7 123.3 223.6Q118.8 223.6 114.1 223.4Q109.5 223.3 104.8 223.2Q100.1 223.1 95.3 223Q90.4 222.9 85.5 222.7Q80.6 222.6 75.5 222.4Q70.4 222.3 65.2 222.1Q60 222 60 222Z" fill="#b9783c"/><path d="M164 184Q164 184 172.1 192.4Q180.3 200.9 185.4 198.2Q190.4 195.5 194.4 191.7Q198.4 187.9 201.3 183.6Q204.3 179.2 206.2 174.6Q208.1 170 209.3 165.4Q210.4 160.7 210.9 156.1Q211.4 151.4 211.5 146.7Q211.5 142.1 211.2 137.4Q210.9 132.8 210.4 128.1Q209.8 123.4 209 118.6Q208.3 113.8 212 110Q215.8 106.2 206 104Q196.2 101.8 198.1 107Q199.9 112.1 197.4 116.3Q194.9 120.4 192.5 124.4Q190.2 128.4 188 132.1Q185.8 135.8 183.7 139.2Q181.6 142.5 179.6 145.4Q177.6 148.3 175.7 150.6Q173.8 152.9 172.1 154.5Q170.4 156.2 168.9 157.3Q167.5 158.5 166.2 159.3Q164.9 160 163.7 161Q162.5 162 163.3 173Q164 184 164 184Z" fill="#120d0a"/><path d="M164 184Q164 184 171.3 190.7Q178.7 197.3 183.4 194.8Q188.1 192.3 191.9 188.8Q195.6 185.2 198.4 181.2Q201.2 177.1 203.1 172.8Q205 168.5 206.2 164Q207.4 159.6 208.1 155.1Q208.7 150.6 208.9 146.1Q209.2 141.5 209.1 136.9Q209 132.4 208.7 127.7Q208.4 123.1 208 118.4Q207.5 113.7 210.4 109.7Q213.3 105.6 206 104Q198.7 102.4 199.7 107.3Q200.7 112.3 198.5 116.5Q196.2 120.7 194.2 124.7Q192.1 128.8 190.1 132.6Q188.2 136.4 186.2 139.9Q184.3 143.4 182.5 146.4Q180.6 149.4 178.8 151.9Q176.9 154.4 175.2 156.4Q173.5 158.3 171.9 159.7Q170.3 161.1 168.7 162.2Q167.2 163.3 165.7 164.4Q164.1 165.5 164.1 174.8Q164 184 164 184Z" fill="#e2a866"/><g transform="rotate(24 214 102)"><ellipse cx="216" cy="100" rx="26" ry="14" fill="#120d0a"/><ellipse cx="216" cy="100" rx="23" ry="11.5" fill="#e2a866"/></g><circle cx="208" cy="94" r="3.2" fill="#120d0a"/><path d="M203 90Q208 86 214 89" stroke="#120d0a" stroke-width="2" fill="none"/><path d="M196 86L192 76L201 83Z" fill="#b9783c" stroke="#120d0a" stroke-width="2"/><path d="M228 114Q234 116 236 111" stroke="#120d0a" stroke-width="2.2" fill="none"/><path d="M188 140Q200 150 210 138" stroke="#e0262b" stroke-width="7" fill="none"/><circle cx="190" cy="145" r="2" fill="#f2c14e"/><circle cx="195" cy="147" r="2" fill="#f2c14e"/><circle cx="200" cy="145" r="2" fill="#f2c14e"/><circle cx="205" cy="147" r="2" fill="#f2c14e"/><circle cx="200" cy="80" r="6" fill="#ff3e8a" stroke="#120d0a" stroke-width="2"/><circle cx="212" cy="80" r="5" fill="#ffb400" stroke="#120d0a" stroke-width="2"/><path d="M70 148C86 124 120 120 136 142L144 196L64 196Z" fill="#e0262b" stroke="#120d0a" stroke-width="4" stroke-linejoin="round"/><circle cx="74" cy="188" r="2.6" fill="#f2c14e"/><circle cx="83.4" cy="188" r="2.6" fill="#ffffff"/><circle cx="92.9" cy="188" r="2.6" fill="#f2c14e"/><circle cx="102.3" cy="188" r="2.6" fill="#ffffff"/><circle cx="111.7" cy="188" r="2.6" fill="#f2c14e"/><circle cx="121.1" cy="188" r="2.6" fill="#ffffff"/><circle cx="130.6" cy="188" r="2.6" fill="#f2c14e"/><circle cx="140" cy="188" r="2.6" fill="#ffffff"/><g style="transform-origin:68px 196px;animation:tass 1.2s ease-in-out 0.0s infinite"><path d="M68 196L68 206" stroke="#120d0a" stroke-width="2"/><path d="M68 204C64 204 63.5 210.6 68 216C72.5 210.6 72 204 68 204Z" fill="#ff3e8a" stroke="#120d0a" stroke-width="1.8"/></g><g style="transform-origin:80px 196px;animation:tass 1.2s ease-in-out -0.1s infinite"><path d="M80 196L80 206" stroke="#120d0a" stroke-width="2"/><path d="M80 204C76 204 75.5 210.6 80 216C84.5 210.6 84 204 80 204Z" fill="#ffb400" stroke="#120d0a" stroke-width="1.8"/></g><g style="transform-origin:92px 196px;animation:tass 1.2s ease-in-out -0.2s infinite"><path d="M92 196L92 206" stroke="#120d0a" stroke-width="2"/><path d="M92 204C88 204 87.5 210.6 92 216C96.5 210.6 96 204 92 204Z" fill="#16b3c4" stroke="#120d0a" stroke-width="1.8"/></g><g style="transform-origin:104px 196px;animation:tass 1.2s ease-in-out -0.30000000000000004s infinite"><path d="M104 196L104 206" stroke="#120d0a" stroke-width="2"/><path d="M104 204C100 204 99.5 210.6 104 216C108.5 210.6 108 204 104 204Z" fill="#1fa34a" stroke="#120d0a" stroke-width="1.8"/></g><g style="transform-origin:116px 196px;animation:tass 1.2s ease-in-out -0.4s infinite"><path d="M116 196L116 206" stroke="#120d0a" stroke-width="2"/><path d="M116 204C112 204 111.5 210.6 116 216C120.5 210.6 120 204 116 204Z" fill="#ff3e8a" stroke="#120d0a" stroke-width="1.8"/></g><g style="transform-origin:128px 196px;animation:tass 1.2s ease-in-out -0.5s infinite"><path d="M128 196L128 206" stroke="#120d0a" stroke-width="2"/><path d="M128 204C124 204 123.5 210.6 128 216C132.5 210.6 132.1 204 128 204Z" fill="#ffb400" stroke="#120d0a" stroke-width="1.8"/></g><g style="transform-origin:140px 196px;animation:tass 1.2s ease-in-out -0.6000000000000001s infinite"><path d="M140 196L140 206" stroke="#120d0a" stroke-width="2"/><path d="M140 204C135.9 204 135.5 210.6 140 216C144.5 210.6 144.1 204 140 204Z" fill="#16b3c4" stroke="#120d0a" stroke-width="1.8"/></g><g transform="rotate(-3 102 124)"><rect x="66" y="100" width="72" height="48" rx="4" fill="#c8913a" stroke="#120d0a" stroke-width="4"/><path d="M70 104L134 144M134 104L70 144" stroke="#8a5a22" stroke-width="3"/><rect x="74" y="111" width="56" height="26" rx="4" fill="#1f4fd8" stroke="#120d0a" stroke-width="2.5"/><use href="#t1" fill="#ffffff"/></g><g transform="rotate(4 108 76)"><rect x="72" y="52" width="72" height="48" rx="4" fill="#c8913a" stroke="#120d0a" stroke-width="4"/><path d="M76 56L140 96M140 56L76 96" stroke="#8a5a22" stroke-width="3"/><rect x="80" y="63" width="56" height="26" rx="4" fill="#1fa34a" stroke="#120d0a" stroke-width="2.5"/><use href="#t2" fill="#ffffff"/></g><path d="M80 104L94 150M128 104L118 150" stroke="#5a3412" stroke-width="4"/><path d="M38 194Q24 210 28 232" stroke="#120d0a" stroke-width="5" fill="none" stroke-linecap="round"/><path d="M28 228C22.7 227.1 20.6 235.6 25.2 243.8C32.4 237.7 33.3 228.9 28 228Z" fill="#ff3e8a" stroke="#120d0a" stroke-width="2"/></g></g></g></g><path d="M40 360L40 110Q40 48 155 40Q270 48 270 110L270 360Z" fill="none" stroke="#120d0a" stroke-width="4"/><rect x="286" y="34" width="316" height="332" rx="14" fill="#fff6dc" stroke="#120d0a" stroke-width="4"/><rect x="293" y="41" width="302" height="318" rx="9" fill="none" stroke="#ff6a00" stroke-width="2.5"/><use href="#t3" fill="#120d0a" stroke="#120d0a" stroke-width="4.5" stroke-linejoin="round" transform="translate(2.5 3.5)"/><use href="#t3" fill="#120d0a" stroke="#120d0a" stroke-width="4.5" stroke-linejoin="round"/><use href="#t3" fill="#ff6a00"/><use href="#t4" fill="#9b0f1a"/><circle cx="310" cy="145" r="2.2" fill="#ff6a00"/><circle cx="322.2" cy="145" r="2.2" fill="#f2c14e"/><circle cx="334.4" cy="145" r="2.2" fill="#ff6a00"/><circle cx="346.5" cy="145" r="2.2" fill="#f2c14e"/><circle cx="358.7" cy="145" r="2.2" fill="#ff6a00"/><circle cx="370.9" cy="145" r="2.2" fill="#f2c14e"/><circle cx="383.1" cy="145" r="2.2" fill="#ff6a00"/><circle cx="395.3" cy="145" r="2.2" fill="#f2c14e"/><circle cx="407.5" cy="145" r="2.2" fill="#ff6a00"/><circle cx="419.6" cy="145" r="2.2" fill="#f2c14e"/><circle cx="431.8" cy="145" r="2.2" fill="#ff6a00"/><circle cx="444" cy="145" r="2.2" fill="#f2c14e"/><circle cx="456.2" cy="145" r="2.2" fill="#ff6a00"/><circle cx="468.4" cy="145" r="2.2" fill="#f2c14e"/><circle cx="480.5" cy="145" r="2.2" fill="#ff6a00"/><circle cx="492.7" cy="145" r="2.2" fill="#f2c14e"/><circle cx="504.9" cy="145" r="2.2" fill="#ff6a00"/><circle cx="517.1" cy="145" r="2.2" fill="#f2c14e"/><circle cx="529.3" cy="145" r="2.2" fill="#ff6a00"/><circle cx="541.5" cy="145" r="2.2" fill="#f2c14e"/><circle cx="553.6" cy="145" r="2.2" fill="#ff6a00"/><circle cx="565.8" cy="145" r="2.2" fill="#f2c14e"/><circle cx="578" cy="145" r="2.2" fill="#ff6a00"/><use href="#t5" fill="#2a1a12"/><use href="#t6" fill="#2a1a12"/><use href="#t7" fill="#2a1a12"/><use href="#t8" fill="#2a1a12"/><use href="#t9" fill="#2a1a12"/><use href="#t10" fill="#2a1a12"/><rect x="304.6" y="322" width="73" height="26" rx="6" fill="#ff6a00" stroke="#120d0a" stroke-width="2.5"/><use href="#t11" fill="#ffffff"/><rect x="385.6" y="322" width="55.1" height="26" rx="6" fill="#120d0a" stroke="#120d0a" stroke-width="2.5"/><use href="#t12" fill="#ffffff"/><rect x="448.7" y="322" width="134.7" height="26" rx="6" fill="#9b0f1a" stroke="#120d0a" stroke-width="2.5"/><use href="#t13" fill="#ffffff"/></svg>